<?xml version="1.0" encoding="utf-8"?>
<svg version="1.1" id="Layer_1" x="0px" y="0px" viewBox="0 0 83 74" style="enable-background:new 0 0 325 140;" xmlns="http://www.w3.org/2000/svg" xmlns:bx="https://boxy-svg.com">
  <style type="text/css">
	.st0{fill:#5F6162;}
	.st1{fill:#1BB9D6;}
	.st2{fill:#A1A1A1;}
</style>
  <g>
    <g/>
    <path class="st1" d="M 58.8 36.9 C 58.8 46.7 50.9 54.7 41.2 54.7 C 31.5 54.7 23.6 46.8 23.6 36.9 C 23.6 27.1 31.5 19.1 41.2 19.1 C 50.9 19.1 58.8 27.1 58.8 36.9 Z M 80.3 40.8 L 64 69.1 C 62.8 71.2 59.8 72.9 57.4 72.9 L 24.9 72.9 C 22.5 72.9 19.5 71.2 18.3 69.1 L 2.1 40.9 C 0.9 38.8 0.9 35.4 2.1 33.2 L 18.3 4.9 C 19.5 2.8 22.5 1.1 24.9 1.1 L 57.4 1.1 C 59.8 1.1 62.8 2.8 64 4.9 L 80.3 33.2 C 81.5 35.2 81.5 38.6 80.3 40.8 Z M 67.8 36.9 C 67.8 22.1 55.8 10 41.1 10 C 26.4 10 14.4 22 14.4 36.9 C 14.4 51.7 26.3 63.8 41.1 63.8 C 55.9 63.8 67.8 51.8 67.8 36.9 Z" bx:origin="0.41 0.5"/>
    <g/>
    <g>
      <g>
        <g/>
      </g>
    </g>
    <g/>
  </g>
</svg>