<?xml version="1.0" encoding="utf-8"?>
<!-- Generator: Adobe Illustrator 24.1.0, SVG Export Plug-In . SVG Version: 6.00 Build 0)  -->
<svg version="1.1" id="Layer_1" xmlns="http://www.w3.org/2000/svg" xmlns:xlink="http://www.w3.org/1999/xlink" x="0px" y="0px"
	 viewBox="0 0 382.8 98.67" style="enable-background:new 0 0 382.8 98.67;" xml:space="preserve">
<style type="text/css">
	.st0{fill:#5EBCF4;}
	.st1{fill:#A0A0A0;}
	.st2{fill:#5F6162;}
</style>
<path class="st0" d="M71.16,49.34c0,9.82-7.9,17.76-17.64,17.76c-9.75,0-17.65-7.95-17.65-17.76c0-9.81,7.9-17.77,17.65-17.77
	C63.27,31.57,71.16,39.53,71.16,49.34z M92.62,53.16L76.37,81.5c-1.21,2.11-4.17,3.83-6.59,3.83H37.27c-2.41,0-5.38-1.73-6.59-3.83
	L14.43,53.16c-1.21-2.12-1.21-5.55,0-7.66l16.25-28.33c1.21-2.11,4.17-3.84,6.59-3.84h32.51c2.42,0,5.38,1.73,6.59,3.84L92.62,45.5
	C93.82,47.61,93.82,51.04,92.62,53.16z M80.2,49.34c0-14.84-11.95-26.86-26.68-26.86c-14.73,0-26.68,12.02-26.68,26.86
	c0,14.83,11.94,26.85,26.68,26.85C68.25,76.19,80.2,64.16,80.2,49.34z"/>
<g>
	<path class="st1" d="M169.33,20.35L169.33,20.35h-0.14h-0.01c-0.01,0-0.01,0-0.01,0c-2.48,0-4.18,1.08-5.29,2.54l-0.26,0.35v-7.6
		h-1.84v21.24h1.84v-9.33c0.01-3.22,2.33-5.5,5.35-5.5c3.12,0.02,4.87,2.05,4.88,5.26l0,9.56h1.84v-9.85c0-1.93-0.6-3.6-1.72-4.8
		C172.89,21.08,171.3,20.38,169.33,20.35z"/>
	<polygon class="st1" points="237.3,20.72 231.47,34.32 231.34,34.62 225.45,20.72 223.33,20.72 230.59,37.01 232.09,37.01 
		239.36,20.72 	"/>
	<path class="st1" d="M202.49,33.05c-1.32,1.42-2.97,2.47-5.1,2.47c-3.55,0-6.37-2.97-6.37-6.72v-0.05c0-3.72,2.73-6.65,6.25-6.65
		c2.3,0,3.81,1.17,5.16,2.56l0.07,0.06l0.05,0.06l1.31-1.34l-0.11-0.11c-1.5-1.56-3.41-2.96-6.44-2.96l-0.15,0.02v-0.02
		c-4.57,0.08-8.1,3.97-8.1,8.45v0.07c0.01,4.53,3.58,8.39,8.23,8.39h0.01h0.01c2.97,0,4.94-1.34,6.57-3.2l0.06-0.05l0.05-0.06
		l-1.3-1.15l-0.09,0.12L202.49,33.05L202.49,33.05z"/>
	<path class="st1" d="M205.66,28.8v0.07c0,4.53,3.48,8.39,8.27,8.39c4.82,0,8.33-3.94,8.34-8.46v-0.05
		c-0.01-4.54-3.49-8.39-8.27-8.4C209.17,20.35,205.66,24.28,205.66,28.8z M213.93,22.1c3.57,0,6.36,2.97,6.36,6.7v0.07
		c0,3.65-2.63,6.65-6.3,6.65c-3.58,0-6.38-2.97-6.38-6.72v-0.05C207.62,25.09,210.26,22.1,213.93,22.1z"/>
	<path class="st1" d="M181.25,15.65h-1.84v14.54h0.01l0.01,0.13c0.07,1.56,0.63,2.97,1.55,4.11c1.28,1.57,3.23,2.58,5.42,2.58h0.63
		v-1.86h-0.47v0l-0.2,0c-2.81,0-5.11-2.3-5.11-5.13v-7.59h5.78v-1.71h-5.78V15.65z"/>
	<path class="st1" d="M123.32,36.88h1.82v-7.74c0-3.81,3.09-6.9,6.9-6.9h0.16v-1.82h-0.16c-4.81,0-8.72,3.91-8.72,8.73V36.88z"/>
	<rect x="135.72" y="20.72" class="st1" width="1.84" height="16.17"/>
	<path class="st1" d="M111.86,20.35c-2.49,0-4.63,1.04-6.12,2.7l-0.25,0.27v-7.67h-1.96v13.22c0.01,4.53,3.49,8.39,8.27,8.39
		c4.83,0,8.33-3.94,8.34-8.46v-0.05C120.12,24.21,116.64,20.36,111.86,20.35z M118.17,28.87c-0.01,3.65-2.64,6.65-6.31,6.65
		c-3.58,0-6.37-2.97-6.38-6.72v-0.05c0.01-3.66,2.64-6.65,6.32-6.65c3.57,0,6.37,2.97,6.37,6.7V28.87z"/>
	<path class="st1" d="M141,28.8v0.07c0.01,4.53,3.49,8.39,8.27,8.39c2.59,0,4.78-1.12,6.27-2.85l0.25-0.29v1.85
		c-0.02,3.8-3.09,6.9-6.9,6.9h-0.16v1.82h0.16c4.82,0,8.72-3.91,8.72-8.72v-7.21c-0.01-4.54-3.49-8.39-8.27-8.4
		C144.52,20.35,141.01,24.28,141,28.8z M149.27,22.1c3.59,0,6.38,2.97,6.38,6.7v0.07c-0.01,3.65-2.65,6.65-6.31,6.65
		c-3.58,0-6.37-2.97-6.37-6.72v-0.05C142.97,25.09,145.6,22.1,149.27,22.1z"/>
	<path class="st1" d="M254.99,28.73c-0.04-4.72-2.92-8.37-7.44-8.37c-4.39,0-7.68,3.74-7.68,8.43v0.06c0,5.02,3.68,8.42,7.93,8.42
		h0.01h0.02c3.07,0,5.02-1.28,6.65-3.03l0.06-0.07l0.06-0.05l-1.31-1.13l-0.1,0.1c-1.29,1.38-2.93,2.44-5.32,2.44
		c-2.95,0-5.62-2.1-6.03-5.78l-0.02-0.15h13.12l0.01-0.14c0.03-0.19,0.04-0.3,0.04-0.44V28.73z M241.81,27.9l0.02-0.16
		c0.4-3.26,2.68-5.65,5.6-5.68h0.04h0h0.01c3.41,0,5.19,2.65,5.51,5.68L253,27.9H241.81z"/>
</g>
<g>
	<path class="st2" d="M127.86,73.72L127.86,73.72c-1.06-1.27-2.58-0.67-3.31-0.26c-0.09,0.06-0.42,0.26-0.42,0.26s0-0.01,0-0.01
		c-1.5,0.85-3.13,1.33-5.36,1.33c-4.33,0-7.83-3.51-8.38-7.96c-0.05-0.42-0.08-0.85-0.08-1.3c0-0.44,0.03-0.88,0.08-1.3
		c0.55-4.45,4.05-7.96,8.38-7.96c2.23,0,3.86,0.47,5.36,1.33l0-0.01c0,0,0.03,0.02,0.08,0.06c0.13,0.08,0.26,0.15,0.39,0.24
		c0.75,0.4,2.22,0.95,3.25-0.29l2.7-3.26c-2.79-2.37-5.7-3.75-10.17-3.99c-0.45-0.03-0.9-0.05-1.37-0.05c-0.01,0-0.01,0-0.02,0
		c-0.01,0-0.01,0-0.02,0c-0.16,0-0.31,0.02-0.46,0.02c-8.9,0.24-14.99,6.58-14.99,15.14v0.08v0.08c0,8.55,6.09,14.9,14.99,15.14
		c0.16,0,0.31,0.02,0.46,0.02c0.01,0,0.01,0,0.02,0c0.01,0,0.01,0,0.02,0c0.49,0,0.97-0.02,1.44-0.05c3.35-0.19,5.83-1.03,8.03-2.45
		c0.08-0.05,0.24-0.15,0.24-0.16c0.62-0.42,1.23-0.87,1.83-1.38L127.86,73.72z"/>
	<path class="st2" d="M291.56,51.24c-1.86,0.04-2.9,0.65-2.9,3l0,0v13.62c0,4.6-2.36,6.97-6.26,6.97c-3.9,0-6.26-2.45-6.26-7.17
		V54.23l-0.01,0.02c0-2.36-1.04-2.97-2.9-3h-3.47v16.58c0,8.54,4.77,12.89,12.56,12.89c7.79,0,12.73-4.31,12.73-13.1V51.24H291.56z"
		/>
	<path class="st2" d="M321.86,51.24c-1.86,0.04-2.9,0.65-2.9,3l0,0v13.62c0,4.6-2.36,6.97-6.26,6.97c-3.9,0-6.26-2.45-6.26-7.17
		V54.23l-0.01,0.02c0-2.36-1.04-2.97-2.9-3h-3.47v16.58c0,8.54,4.77,12.89,12.56,12.89c7.79,0,12.73-4.31,12.73-13.1V51.24H321.86z"
		/>
	<path class="st2" d="M231.8,51.07h-4.86v26.96c0,1.15,0.94,2.09,2.09,2.09h4.86V53.16C233.89,52.01,232.95,51.07,231.8,51.07z"/>
	<g>
		<path class="st2" d="M362.37,52.07h-1.24v-0.83h3.38v0.83h-1.24v3.25h-0.9V52.07z"/>
		<path class="st2" d="M365.19,51.24h0.97l1.07,1.73l1.07-1.73h0.97v4.08h-0.89v-2.66l-1.15,1.74h-0.02l-1.14-1.73v2.65h-0.88V51.24
			z"/>
	</g>
	<g>
		<g>
			<g>
				<path class="st2" d="M191.96,51.03h-2.78h-2.1v2.1v15l-12.36-16.26v0.06c-0.38-0.53-0.97-0.89-1.67-0.89h-4.87v27.05
					c0,1.16,0.94,2.1,2.1,2.1h4.88V62.47l12.48,17.01l0-0.03c0.39,0.44,0.93,0.73,1.56,0.73h0.99h1.79h2.1v-2.09V53.12v-2.09H191.96
					z"/>
			</g>
		</g>
	</g>
	<g>
		<g>
			<g>
				<path class="st2" d="M262.93,51.03h-2.78h-2.1v2.1v15l-12.36-16.26v0.06c-0.38-0.53-0.97-0.89-1.67-0.89h-4.87v27.05
					c0,1.16,0.94,2.1,2.1,2.1h4.88V62.47l12.48,17.01l0-0.03c0.39,0.44,0.93,0.73,1.56,0.73h0.99h1.79h2.1v-2.09V53.12v-2.09H262.93
					z"/>
			</g>
		</g>
	</g>
	<path class="st2" d="M148.4,50.61c-8.66,0-15.43,6.59-15.43,15.07c0,8.5,6.6,14.91,15.35,14.91c8.65,0,15.43-6.58,15.43-15.07
		C163.76,57.03,157.16,50.61,148.4,50.61z M148.32,57.06c4.68,0,8.21,3.67,8.21,8.62c0,4.83-3.49,8.46-8.13,8.46
		c-4.69,0-8.22-3.67-8.22-8.62C140.18,60.7,143.68,57.06,148.32,57.06z"/>
	<path class="st2" d="M222.27,53.07c0-1.15-0.94-2.09-2.09-2.09h-21.96v4.14c0,1.16,0.94,2.09,2.09,2.09h6.39v20.92
		c0,1.15,0.94,2.09,2.09,2.09h4.86V57.21h8.62V53.07z"/>
	<path class="st2" d="M359.4,50.92L359.4,50.92h-5.78c-0.71,0-1.3,0.37-1.68,0.9v-0.06l-7.22,11.54l-7.22-11.54v0.06
		c-0.38-0.53-0.98-0.9-1.69-0.9h-5.78v27.26c0,1.17,0.95,2.11,2.11,2.11h4.22V61.2l8.18,12.42h0.17l8.35-12.42l0,16.98
		c0,1.17,0.95,2.11,2.11,2.11h4.23L359.4,50.92L359.4,50.92z"/>
</g>
</svg>
