<?xml version="1.0" encoding="UTF-8"?>
<svg width="72px" height="64px" viewBox="0 0 72 64" version="1.1" xmlns="http://www.w3.org/2000/svg" xmlns:xlink="http://www.w3.org/1999/xlink">
    <!-- Generator: Sketch 62 (91390) - https://sketch.com -->
    <title>gallery-nut</title>
    <desc>Created with Sketch.</desc>
    <g id="Page-1" stroke="none" stroke-width="1" fill="none" fill-rule="evenodd">
        <g id="ico-bc-gallery" fill="#D5257C" fill-rule="nonzero">
            <path d="M51.8757535,32 C51.7937487,44.0737778 38.5096657,51.5324444 27.9633998,45.4257778 C17.4171339,39.3191111 17.5197345,24.2266667 28.1470009,18.2595556 C30.5410159,16.9155556 33.2473328,16.2097778 36.00045,16.2106658 C44.798905,16.2408889 51.9071494,23.3102222 51.8757535,32 Z M71.1906699,35.4035556 L56.5610785,60.592 C55.2470703,62.5973333 53.0438565,63.864 50.6291414,64 L21.3717586,64 C18.9588435,63.8613333 16.7565297,62.5955556 15.4434215,60.592 L0.820130126,35.4035556 C-0.273376709,33.2613333 -0.273376709,30.7342222 0.820130126,28.592 L15.4443215,3.41155556 C16.7565297,1.40622222 18.9579435,0.139555556 21.3717586,0 L50.6291414,0 C53.0447565,0.136888889 55.2479703,1.40444444 56.5610785,3.41155556 L71.1906699,28.592 C72.2697767,30.7377778 72.2697767,33.2577778 71.1906699,35.4035556 Z M60.0136142,32 C59.8919993,13.744 39.8065738,2.464 23.8593741,11.6951111 C7.91217445,20.9271111 8.0642754,43.7466667 24.1320758,52.7715556 C27.7491984,54.8026667 31.839724,55.8711111 36.00045,55.8711111 C49.3043332,55.8257778 60.0540003,45.1395556 60.0136142,32 Z" id="Shape"></path>
        </g>
    </g>
</svg>