<?xml version="1.0" encoding="utf-8"?>
<svg id="Layer_1" data-name="Layer 1" width="298.708" height="72" xmlns="http://www.w3.org/2000/svg" xmlns:bx="https://boxy-svg.com">
  <defs>
    <bx:grid x="-0.943" y="-14.174" width="306.855" height="99.2"/>
  </defs>
  <title>logo-bc-gallery</title>
  <g id="Gallery" style="" transform="matrix(0.897635, 0, 0, 1, 0.204706, 0)">
    <path d="M 59.639 36 C 59.548 49.583 44.788 57.974 33.07 51.104 C 21.352 44.234 21.466 27.255 33.274 20.542 C 35.934 19.03 38.941 18.236 42 18.237 C 51.776 18.271 59.674 26.224 59.639 36 Z M 81.1 39.829 L 64.845 68.166 C 63.385 70.422 60.937 71.847 58.254 72 L 25.746 72 C 23.065 71.844 20.618 70.42 19.159 68.166 L 2.911 39.829 C 1.696 37.419 1.696 34.576 2.911 32.166 L 19.16 3.838 C 20.618 1.582 23.064 0.157 25.746 0 L 58.254 0 C 60.938 0.154 63.386 1.58 64.845 3.838 L 81.1 32.166 C 82.299 34.58 82.299 37.415 81.1 39.829 Z M 68.681 36 C 68.546 15.462 46.229 2.772 28.51 13.157 C 10.791 23.543 10.96 49.215 28.813 59.368 C 32.832 61.653 37.377 62.855 42 62.855 C 56.782 62.804 68.726 50.782 68.681 36 Z" fill="#d5257c"/>
  </g>
</svg>