<?xml version="1.0" encoding="utf-8"?>
<svg viewBox="0 0 79.999 72" xmlns="http://www.w3.org/2000/svg">
  <path d="M59.639,38A17.645,17.645,0,1,1,42,20.237,17.7,17.7,0,0,1,59.639,38ZM81.1,41.829,64.845,70.166A8.422,8.422,0,0,1,58.254,74H25.746a8.428,8.428,0,0,1-6.587-3.834L2.911,41.829a8.513,8.513,0,0,1,0-7.663L19.16,5.838A8.428,8.428,0,0,1,25.746,2H58.254a8.422,8.422,0,0,1,6.591,3.838L81.1,34.166A8.61,8.61,0,0,1,81.1,41.829ZM68.681,38A26.68,26.68,0,1,0,42,64.855,26.773,26.773,0,0,0,68.681,38Z" transform="matrix(1, 0, 0, 1, -2, -2)" style="fill: rgb(64, 196, 181);"/>
</svg>