<svg id="Layer_1" data-name="Layer 1" xmlns="http://www.w3.org/2000/svg" width="315.129" height="89.769" viewBox="0 0 315.129 89.769"><title>logo-bc-ott-flow</title><g id="OTT_Flow" data-name="OTT Flow"><path d="M190.43,69.049H185.6V39.778h22.346v4.213a2.071,2.071,0,0,1-2.071,2.071H192.609V51.39H203.08v4.1a1.944,1.944,0,0,1-1.944,1.944h-8.527V66.87A2.179,2.179,0,0,1,190.43,69.049Z" transform="translate(-2 -2)" fill="#5f6162"/><path d="M230.826,62.418H218.379V41.838a1.964,1.964,0,0,0-1.966-1.962h-4.568V68.951h20.943V64.384A1.964,1.964,0,0,0,230.826,62.418Z" transform="translate(-2 -2)" fill="#5f6162"/><path d="M145.02,41.9a2.094,2.094,0,0,0-2.091-2.092H120.966v4.143a2.089,2.089,0,0,0,2.087,2.091h6.391V66.958a2.094,2.094,0,0,0,2.092,2.091H136.4V46.038h8.622Z" transform="translate(-2 -2)" fill="#5f6162"/><path d="M172.722,41.9a2.094,2.094,0,0,0-2.091-2.092H148.668v4.143a2.089,2.089,0,0,0,2.087,2.091h6.391V66.958a2.094,2.094,0,0,0,2.092,2.091H164.1V46.038h8.622Z" transform="translate(-2 -2)" fill="#5f6162"/><path d="M104.668,39.5A15.1,15.1,0,0,0,89.209,54.6c0,8.519,6.611,14.938,15.38,14.938a15.1,15.1,0,0,0,15.46-15.094C120.049,45.932,113.439,39.5,104.668,39.5Zm-.079,6.465c4.69,0,8.227,3.681,8.227,8.634a8.132,8.132,0,0,1-8.147,8.477c-4.7,0-8.233-3.675-8.233-8.633A8.138,8.138,0,0,1,104.589,45.968Z" transform="translate(-2 -2)" fill="#5f6162"/><path d="M249.145,39.5a15.1,15.1,0,0,0-15.459,15.1c0,8.519,6.611,14.938,15.38,14.938a15.1,15.1,0,0,0,15.46-15.094C264.526,45.932,257.916,39.5,249.145,39.5Zm-.079,6.465c4.69,0,8.227,3.681,8.227,8.634a8.132,8.132,0,0,1-8.147,8.477c-4.7,0-8.233-3.675-8.233-8.633A8.138,8.138,0,0,1,249.066,45.968Z" transform="translate(-2 -2)" fill="#5f6162"/><path d="M302.949,39.5h-1.806a2.666,2.666,0,0,0-2.512,2.041l-4.723,16.832-4.723-16.832a2.666,2.666,0,0,0-2.512-2.041h-1.9l-1.94,0-5.3,18.871-4.723-16.832A2.666,2.666,0,0,0,270.3,39.5H268.5l-3.252,0,9.11,29.444h6.367l5-16.164h0v0l5,16.163h6.367L306.2,39.5Z" transform="translate(-2 -2)" fill="#5f6162"/><path d="M310.221,40.328H308.98V39.5h3.381v.828h-1.242V43.58h-.9Z" transform="translate(-2 -2)" fill="#5f6162"/><path d="M313.049,39.5h.967l1.073,1.726,1.072-1.726h.968v4.08h-.892V40.917l-1.148,1.742h-.023l-1.137-1.726V43.58h-.88Z" transform="translate(-2 -2)" fill="#5f6162"/><path d="M185.55,85h1.185v.861a2.064,2.064,0,0,1,1.753-.969,2.481,2.481,0,0,1,2.409,2.683v.02a2.475,2.475,0,0,1-2.409,2.683,2.106,2.106,0,0,1-1.753-.911v2.369H185.55Zm4.142,2.595v-.02a1.531,1.531,0,0,0-1.479-1.655,1.559,1.559,0,0,0-1.508,1.655v.02a1.552,1.552,0,0,0,1.508,1.654A1.514,1.514,0,0,0,189.692,87.6Z" transform="translate(-2 -2)" fill="#5f6162"/><path d="M192.556,87.617V87.6a2.757,2.757,0,0,1,5.512-.02v.02a2.7,2.7,0,0,1-2.771,2.693A2.674,2.674,0,0,1,192.556,87.617Zm4.328,0V87.6a1.6,1.6,0,0,0-1.587-1.665,1.552,1.552,0,0,0-1.557,1.645v.02a1.6,1.6,0,0,0,1.577,1.664A1.559,1.559,0,0,0,196.884,87.617Z" transform="translate(-2 -2)" fill="#5f6162"/><path d="M199.328,85h1.214l1.038,3.544,1.146-3.564h1.008l1.155,3.564L205.947,85h1.184l-1.694,5.21H204.38l-1.155-3.535-1.165,3.535H201Z" transform="translate(-2 -2)" fill="#5f6162"/><path d="M208.39,87.608v-.02a2.566,2.566,0,0,1,2.527-2.693,2.5,2.5,0,0,1,2.477,2.781c0,.108-.01.215-.02.333h-3.8a1.443,1.443,0,0,0,1.488,1.313,1.875,1.875,0,0,0,1.4-.618l.7.618a2.617,2.617,0,0,1-2.116.969A2.58,2.58,0,0,1,208.39,87.608Zm3.829-.382a1.342,1.342,0,0,0-1.312-1.361,1.4,1.4,0,0,0-1.342,1.361Z" transform="translate(-2 -2)" fill="#5f6162"/><path d="M215.318,85H216.5v1.165a1.834,1.834,0,0,1,1.832-1.263v1.253h-.068c-1.039,0-1.763.675-1.763,2.046v1.968h-1.184Z" transform="translate(-2 -2)" fill="#5f6162"/><path d="M219.632,87.608v-.02a2.566,2.566,0,0,1,2.527-2.693,2.5,2.5,0,0,1,2.477,2.781c0,.108-.01.215-.02.333h-3.8a1.443,1.443,0,0,0,1.488,1.313,1.875,1.875,0,0,0,1.4-.618l.7.618a2.617,2.617,0,0,1-2.116.969A2.58,2.58,0,0,1,219.632,87.608Zm3.829-.382a1.342,1.342,0,0,0-1.312-1.361,1.4,1.4,0,0,0-1.342,1.361Z" transform="translate(-2 -2)" fill="#5f6162"/><path d="M226.1,87.6v-.02a2.468,2.468,0,0,1,2.4-2.683,2.139,2.139,0,0,1,1.762.911V83.025h1.185v7.148h-1.185v-.861a2.07,2.07,0,0,1-1.762.969A2.479,2.479,0,0,1,226.1,87.6Zm4.181,0v-.02a1.551,1.551,0,0,0-1.5-1.655,1.516,1.516,0,0,0-1.489,1.655v.02a1.538,1.538,0,0,0,1.489,1.654A1.557,1.557,0,0,0,230.281,87.6Z" transform="translate(-2 -2)" fill="#5f6162"/><path d="M238.507,89.37v.8h-1.184V83.025h1.184v2.839a2.066,2.066,0,0,1,1.753-.969,2.481,2.481,0,0,1,2.409,2.683v.02a2.475,2.475,0,0,1-2.409,2.683A2.106,2.106,0,0,1,238.507,89.37Zm2.957-1.772v-.02a1.531,1.531,0,0,0-1.478-1.655,1.559,1.559,0,0,0-1.508,1.655v.02a1.552,1.552,0,0,0,1.508,1.654A1.514,1.514,0,0,0,241.464,87.6Z" transform="translate(-2 -2)" fill="#5f6162"/><path d="M244.2,91.456l.4-.881a1.467,1.467,0,0,0,.7.2c.334,0,.539-.147.735-.6L243.879,85h1.263l1.469,3.838L247.953,85h1.234l-2.056,5.317c-.412,1.058-.871,1.449-1.7,1.449A2.42,2.42,0,0,1,244.2,91.456Z" transform="translate(-2 -2)" fill="#5f6162"/><path d="M261.216,90.149h-1l-.129-.792h-.122a2.79,2.79,0,0,1-2.421.927,4.023,4.023,0,0,1-2.454-.567,3.248,3.248,0,0,1,0-4.056,3.249,3.249,0,0,1,2.062-.519h2.843V84.2q0-.886-.3-1.107a3.022,3.022,0,0,0-1.647-.327,2.637,2.637,0,0,0-1.823.415,2.212,2.212,0,0,0-.249.911H254.8c-.022-.449-.032-.72-.032-.815a1.191,1.191,0,0,1,.219-.8q.616-.742,2.756-.77,2.294-.016,2.975.7a1.765,1.765,0,0,1,.445,1.046q.049.413.049,1.976Zm-1.222-2.909V86.118h-2.086a4.765,4.765,0,0,0-1.626.167q-.629.3-.628,1.468a1.426,1.426,0,0,0,.314,1.1,2.529,2.529,0,0,0,1.651.406,4.047,4.047,0,0,0,1.7-.255Q259.993,88.654,259.993,87.24Z" transform="translate(-2 -2)" fill="#5f6162"/><path d="M269.616,83.344c.011.118.016.215.016.291,0,.058-.011.249-.033.572h-1.222l-.081-.519a1.1,1.1,0,0,0-.236-.58,2.483,2.483,0,0,0-1.67-.361,2.434,2.434,0,0,0-1.915.58,4.9,4.9,0,0,0-.537,2.856,4.981,4.981,0,0,0,.382,2.434q.471.65,2.049.65a2.553,2.553,0,0,0,1.683-.361,2.389,2.389,0,0,0,.3-1.1h1.222a4.419,4.419,0,0,1,.041.536c0,.094-.006.2-.016.325q-.154,1.6-3.353,1.6-2.255,0-2.97-1.046a6.927,6.927,0,0,1-.561-3.4,6.054,6.054,0,0,1,.5-2.838,2.253,2.253,0,0,1,1.066-.905,4.677,4.677,0,0,1,1.986-.36Q269.462,81.717,269.616,83.344Z" transform="translate(-2 -2)" fill="#5f6162"/><path d="M278.046,83.344c.011.118.016.215.016.291,0,.058-.011.249-.033.572h-1.222l-.081-.519a1.1,1.1,0,0,0-.237-.58,2.482,2.482,0,0,0-1.67-.361,2.433,2.433,0,0,0-1.915.58,4.893,4.893,0,0,0-.538,2.856,4.978,4.978,0,0,0,.382,2.434q.471.65,2.049.65a2.553,2.553,0,0,0,1.683-.361,2.38,2.38,0,0,0,.3-1.1h1.223a4.533,4.533,0,0,1,.04.536q0,.141-.016.325-.154,1.6-3.353,1.6-2.254,0-2.969-1.046a6.917,6.917,0,0,1-.562-3.4,6.048,6.048,0,0,1,.5-2.838,2.253,2.253,0,0,1,1.066-.905,4.681,4.681,0,0,1,1.986-.36Q277.891,81.717,278.046,83.344Z" transform="translate(-2 -2)" fill="#5f6162"/><path d="M286.476,85.514q0,.4-.016.775h-5.638V86.6a3.668,3.668,0,0,0,.381,2.007,2.206,2.206,0,0,0,1.85.629q1.542,0,1.859-.342a1.7,1.7,0,0,0,.3-1.092h1.222a5.309,5.309,0,0,1,.041.536q0,.141-.016.343-.154,1.583-3.228,1.583a4.4,4.4,0,0,1-2.521-.553q-1.111-.827-1.111-3.551a6.063,6.063,0,0,1,.648-3.269,4.184,4.184,0,0,1,5.66-.147A4.965,4.965,0,0,1,286.476,85.514Zm-1.163-.253a5.684,5.684,0,0,0-.131-1.359q-.3-1.157-2.012-1.157a2.541,2.541,0,0,0-1.783.481,3.174,3.174,0,0,0-.564,2.035Z" transform="translate(-2 -2)" fill="#5f6162"/><path d="M295,90.158h-.991l-.154-.9a2.64,2.64,0,0,1-2.447,1.034,2.909,2.909,0,0,1-2.682-1.1,6.579,6.579,0,0,1-.561-3.209,5.091,5.091,0,0,1,.823-3.38,3.288,3.288,0,0,1,2.524-.886,5.534,5.534,0,0,1,.959.1,4.029,4.029,0,0,1,1.307.414v-4H295Zm-1.222-7.085c-.107-.024-.185-.04-.233-.053a7.323,7.323,0,0,0-1.639-.167,3.362,3.362,0,0,0-1.439.255,1.71,1.71,0,0,0-.867,1.242,6.545,6.545,0,0,0-.137,1.515,8.355,8.355,0,0,0,.218,2.3q.345,1.076,1.88,1.075a3.285,3.285,0,0,0,1.824-.4,1.047,1.047,0,0,0,.378-.776q.016-.175.016-.915Z" transform="translate(-2 -2)" fill="#5f6162"/><path d="M303.54,86a5.826,5.826,0,0,1-.69,3.422q-.69.844-2.815.845t-2.815-.845A5.82,5.82,0,0,1,296.53,86q0-2.63.705-3.47a3.589,3.589,0,0,1,2.8-.84q2.159,0,2.856.888A6.124,6.124,0,0,1,303.54,86Zm-1.222,0a6.272,6.272,0,0,0-.334-2.667q-.4-.617-1.945-.616-1.481,0-1.884.559a5.616,5.616,0,0,0-.4,2.724,5.832,5.832,0,0,0,.383,2.7q.382.568,1.9.567t1.9-.567A5.839,5.839,0,0,0,302.318,86Z" transform="translate(-2 -2)" fill="#5f6162"/><path d="M59.639,38A17.645,17.645,0,1,1,42,20.237,17.7,17.7,0,0,1,59.639,38ZM81.1,41.829,64.845,70.166A8.422,8.422,0,0,1,58.254,74H25.746a8.428,8.428,0,0,1-6.587-3.834L2.911,41.829a8.513,8.513,0,0,1,0-7.663L19.16,5.838A8.428,8.428,0,0,1,25.746,2H58.254a8.422,8.422,0,0,1,6.591,3.838L81.1,34.166A8.61,8.61,0,0,1,81.1,41.829ZM68.681,38A26.68,26.68,0,1,0,42,64.855,26.773,26.773,0,0,0,68.681,38Z" transform="translate(-2 -2)" fill="#1bbad6"/><path d="M157.8,9.02v.007l-.143-.007h-.017a6.306,6.306,0,0,0-5.287,2.545l-.262.35v-7.6h-1.839V25.562H152.1V16.232a5.285,5.285,0,0,1,5.35-5.5c3.116.017,4.873,2.053,4.883,5.264l0,9.559h1.835V15.706a6.876,6.876,0,0,0-1.72-4.8A6.27,6.27,0,0,0,157.8,9.02Z" transform="translate(-2 -2)" fill="#a0a0a0"/><polygon points="223.777 7.387 217.948 20.982 217.82 21.291 211.926 7.387 209.808 7.387 217.068 23.678 218.57 23.678 225.834 7.387 223.777 7.387" fill="#a0a0a0"/><path d="M190.968,21.713a6.9,6.9,0,0,1-5.1,2.475,6.506,6.506,0,0,1-6.365-6.721v-.051a6.389,6.389,0,0,1,6.246-6.653,6.968,6.968,0,0,1,5.16,2.558l.072.057.049.06,1.307-1.344-.107-.111a8.489,8.489,0,0,0-6.439-2.964l-.154.019V9.02a8.386,8.386,0,0,0-8.1,8.447v.072a8.317,8.317,0,0,0,8.226,8.39h.025a8.309,8.309,0,0,0,6.569-3.2l.059-.055.048-.06-1.3-1.145-.086.118-.108.123Z" transform="translate(-2 -2)" fill="#a0a0a0"/><path d="M194.137,17.467v.072a8.26,8.26,0,0,0,8.267,8.39,8.366,8.366,0,0,0,8.343-8.462v-.051a8.306,8.306,0,1,0-16.61.051Zm8.274-6.7a6.48,6.48,0,0,1,6.362,6.7v.072a6.374,6.374,0,0,1-6.3,6.649,6.5,6.5,0,0,1-6.377-6.721v-.051A6.383,6.383,0,0,1,202.411,10.763Z" transform="translate(-2 -2)" fill="#a0a0a0"/><path d="M169.723,4.318h-1.842V18.854h.008l.005.134a6.98,6.98,0,0,0,6.975,6.691h.635V23.822h-.475v0l-.2,0a5.126,5.126,0,0,1-5.106-5.127V11.1H175.5V9.387h-5.781Z" transform="translate(-2 -2)" fill="#a0a0a0"/><path d="M111.8,25.552h1.818V17.807a6.9,6.9,0,0,1,6.9-6.9h.158V9.086h-.158a8.727,8.727,0,0,0-8.719,8.729Z" transform="translate(-2 -2)" fill="#a0a0a0"/><rect x="122.197" y="7.387" width="1.839" height="16.174" fill="#a0a0a0"/><path d="M100.335,9.02a8.139,8.139,0,0,0-6.123,2.7l-.252.27V4.318H92V17.539a8.267,8.267,0,0,0,8.265,8.39,8.36,8.36,0,0,0,8.341-8.462v-.051A8.271,8.271,0,0,0,100.335,9.02Zm6.312,8.519a6.389,6.389,0,0,1-6.312,6.649,6.493,6.493,0,0,1-6.375-6.721v-.051a6.39,6.39,0,0,1,6.316-6.653,6.489,6.489,0,0,1,6.371,6.7Z" transform="translate(-2 -2)" fill="#a0a0a0"/><path d="M129.476,17.467v.072a8.265,8.265,0,0,0,8.268,8.39,8.181,8.181,0,0,0,6.274-2.855l.249-.294v1.845a6.92,6.92,0,0,1-6.9,6.9h-.155v1.818h.155a8.724,8.724,0,0,0,8.723-8.719v-7.21a8.306,8.306,0,1,0-16.61.051Zm8.268-6.7a6.485,6.485,0,0,1,6.378,6.7v.072a6.388,6.388,0,0,1-6.308,6.649,6.487,6.487,0,0,1-6.372-6.721v-.051A6.378,6.378,0,0,1,137.743,10.763Z" transform="translate(-2 -2)" fill="#a0a0a0"/><path d="M243.462,17.395c-.044-4.719-2.923-8.368-7.437-8.375-4.385,0-7.678,3.741-7.678,8.427v.06c0,5.018,3.676,8.422,7.925,8.422h.028a8.514,8.514,0,0,0,6.652-3.029l.056-.069.058-.051-1.306-1.134-.1.1a6.97,6.97,0,0,1-5.324,2.444,6.085,6.085,0,0,1-6.032-5.781l-.017-.149h13.116l.012-.144a3.4,3.4,0,0,0,.044-.439Zm-13.171-.824.017-.161c.4-3.264,2.679-5.648,5.6-5.681h.055c3.409,0,5.19,2.65,5.507,5.681l.011.161Z" transform="translate(-2 -2)" fill="#a0a0a0"/></g></svg>