<svg id="Layer_1" data-name="Layer 1" xmlns="http://www.w3.org/2000/svg" width="393.161" height="72" viewBox="0 0 393.161 72"><title>logo-bc-video-cloud</title><g id="Video_Cloud" data-name="Video Cloud"><path d="M59.639,38A17.645,17.645,0,1,1,42,20.237,17.7,17.7,0,0,1,59.639,38ZM81.1,41.829,64.845,70.166A8.422,8.422,0,0,1,58.254,74H25.746a8.428,8.428,0,0,1-6.587-3.834L2.911,41.829a8.513,8.513,0,0,1,0-7.663L19.16,5.838A8.428,8.428,0,0,1,25.746,2H58.254a8.422,8.422,0,0,1,6.591,3.838L81.1,34.166A8.61,8.61,0,0,1,81.1,41.829ZM68.681,38A26.68,26.68,0,1,0,42,64.855,26.773,26.773,0,0,0,68.681,38Z" transform="translate(-2 -2)" fill="#ef6c2a"/><path d="M157.8,9.02v.007l-.143-.007h-.017a6.306,6.306,0,0,0-5.287,2.545l-.262.35v-7.6h-1.839V25.562H152.1V16.232a5.285,5.285,0,0,1,5.35-5.5c3.116.017,4.873,2.053,4.883,5.264l0,9.559h1.835V15.706a6.876,6.876,0,0,0-1.72-4.8A6.27,6.27,0,0,0,157.8,9.02Z" transform="translate(-2 -2)" fill="#a0a0a0"/><polygon points="223.777 7.387 217.948 20.982 217.82 21.291 211.926 7.387 209.808 7.387 217.068 23.678 218.57 23.678 225.834 7.387 223.777 7.387" fill="#a0a0a0"/><path d="M190.968,21.713a6.9,6.9,0,0,1-5.1,2.475,6.506,6.506,0,0,1-6.365-6.721v-.051a6.389,6.389,0,0,1,6.246-6.653,6.968,6.968,0,0,1,5.16,2.558l.072.057.049.06,1.307-1.344-.107-.111a8.489,8.489,0,0,0-6.439-2.964l-.154.019V9.02a8.386,8.386,0,0,0-8.1,8.447v.072a8.317,8.317,0,0,0,8.226,8.39h.025a8.309,8.309,0,0,0,6.569-3.2l.059-.055.048-.06-1.3-1.145-.086.118-.108.123Z" transform="translate(-2 -2)" fill="#a0a0a0"/><path d="M194.137,17.467v.072a8.26,8.26,0,0,0,8.267,8.39,8.366,8.366,0,0,0,8.343-8.462v-.051a8.306,8.306,0,1,0-16.61.051Zm8.274-6.7a6.48,6.48,0,0,1,6.362,6.7v.072a6.374,6.374,0,0,1-6.3,6.649,6.5,6.5,0,0,1-6.377-6.721v-.051A6.383,6.383,0,0,1,202.411,10.763Z" transform="translate(-2 -2)" fill="#a0a0a0"/><path d="M169.723,4.318h-1.842V18.854h.008l.005.134a6.98,6.98,0,0,0,6.975,6.691h.635V23.822h-.475v0l-.2,0a5.126,5.126,0,0,1-5.106-5.127V11.1H175.5V9.387h-5.781Z" transform="translate(-2 -2)" fill="#a0a0a0"/><path d="M111.8,25.552h1.818V17.807a6.9,6.9,0,0,1,6.9-6.9h.158V9.086h-.158a8.727,8.727,0,0,0-8.719,8.729Z" transform="translate(-2 -2)" fill="#a0a0a0"/><rect x="122.197" y="7.387" width="1.839" height="16.174" fill="#a0a0a0"/><path d="M100.335,9.02a8.139,8.139,0,0,0-6.123,2.7l-.252.27V4.318H92V17.539a8.267,8.267,0,0,0,8.265,8.39,8.36,8.36,0,0,0,8.341-8.462v-.051A8.271,8.271,0,0,0,100.335,9.02Zm6.312,8.519a6.389,6.389,0,0,1-6.312,6.649,6.493,6.493,0,0,1-6.375-6.721v-.051a6.39,6.39,0,0,1,6.316-6.653,6.489,6.489,0,0,1,6.371,6.7Z" transform="translate(-2 -2)" fill="#a0a0a0"/><path d="M129.476,17.467v.072a8.265,8.265,0,0,0,8.268,8.39,8.181,8.181,0,0,0,6.274-2.855l.249-.294v1.845a6.92,6.92,0,0,1-6.9,6.9h-.155v1.818h.155a8.724,8.724,0,0,0,8.723-8.719v-7.21a8.306,8.306,0,1,0-16.61.051Zm8.268-6.7a6.485,6.485,0,0,1,6.378,6.7v.072a6.388,6.388,0,0,1-6.308,6.649,6.487,6.487,0,0,1-6.372-6.721v-.051A6.378,6.378,0,0,1,137.743,10.763Z" transform="translate(-2 -2)" fill="#a0a0a0"/><path d="M243.462,17.395c-.044-4.719-2.923-8.368-7.437-8.375-4.385,0-7.678,3.741-7.678,8.427v.06c0,5.018,3.676,8.422,7.925,8.422h.028a8.514,8.514,0,0,0,6.652-3.029l.056-.069.058-.051-1.306-1.134-.1.1a6.97,6.97,0,0,1-5.324,2.444,6.085,6.085,0,0,1-6.032-5.781l-.017-.149h13.116l.012-.144a3.4,3.4,0,0,0,.044-.439Zm-13.171-.824.017-.161c.4-3.264,2.679-5.648,5.6-5.681h.055c3.409,0,5.19,2.65,5.507,5.681l.011.161Z" transform="translate(-2 -2)" fill="#a0a0a0"/><path d="M264.406,62.385v0c-1.054-1.272-2.578-.669-3.307-.264l-.422.264v-.011a10.287,10.287,0,0,1-5.36,1.326c-4.328,0-7.831-3.514-8.38-7.964a10.157,10.157,0,0,1,0-2.6c.549-4.451,4.052-7.965,8.38-7.965a10.288,10.288,0,0,1,5.361,1.327v-.008l.08.056c.132.077.264.154.395.237a2.491,2.491,0,0,0,3.253-.293l2.7-3.257a15.766,15.766,0,0,0-10.166-3.992c-.449-.031-.9-.05-1.372-.05h-.041c-.158,0-.308.018-.464.022-8.9.236-14.989,6.584-14.989,15.136v.168c0,8.553,6.089,14.9,14.989,15.137.156,0,.307.022.464.022h.041c.49,0,.969-.018,1.438-.052a15.739,15.739,0,0,0,8.028-2.453,1.65,1.65,0,0,0,.238-.161,19.976,19.976,0,0,0,1.832-1.376Z" transform="translate(-2 -2)" fill="#5f6162"/><path d="M290.6,62.438H278.179V41.9a1.96,1.96,0,0,0-1.961-1.958h-4.557v29.01h20.895V64.4A1.96,1.96,0,0,0,290.6,62.438Z" transform="translate(-2 -2)" fill="#5f6162"/><path d="M351.034,39.911c-1.855.035-2.9.648-2.9,3l0,0V56.534c0,4.6-2.363,6.965-6.259,6.965s-6.26-2.446-6.26-7.172V42.9l-.012.02c0-2.356-1.043-2.969-2.9-3h-3.472V56.493c0,8.54,4.767,12.893,12.56,12.893s12.727-4.312,12.727-13.1V39.911Z" transform="translate(-2 -2)" fill="#5f6162"/><path d="M152.161,39.911H140.751V68.966h11.411c8.937,0,15.424-6.108,15.424-14.606C167.586,45.989,161.1,39.911,152.161,39.911ZM147.7,46.25h4.466c4.9,0,8.195,3.287,8.195,8.266,0,4.851-3.3,8.113-8.195,8.113H147.7Z" transform="translate(-2 -2)" fill="#5f6162"/><path d="M212.007,39.418a15.1,15.1,0,0,0-15.459,15.1c0,8.519,6.611,14.938,15.38,14.938a15.1,15.1,0,0,0,15.46-15.094C227.388,45.846,220.778,39.418,212.007,39.418Zm-.079,6.465c4.69,0,8.227,3.681,8.227,8.634a8.132,8.132,0,0,1-8.147,8.477c-4.7,0-8.233-3.675-8.233-8.633A8.138,8.138,0,0,1,211.927,45.882Z" transform="translate(-2 -2)" fill="#5f6162"/><path d="M309.494,39.42a15.1,15.1,0,0,0-15.459,15.1c0,8.519,6.611,14.938,15.38,14.938a15.1,15.1,0,0,0,15.46-15.094C324.875,45.849,318.265,39.42,309.494,39.42Zm-.079,6.465c4.69,0,8.227,3.681,8.227,8.634A8.132,8.132,0,0,1,309.494,63c-4.7,0-8.233-3.675-8.233-8.633A8.138,8.138,0,0,1,309.415,45.885Z" transform="translate(-2 -2)" fill="#5f6162"/><path d="M103.744,67.429a2.666,2.666,0,0,0,2.521,1.551h4.457l.093-.213,12.311-28.92h-4.892a3.523,3.523,0,0,0-3.175,1.988l-1.769,4.347-2.5,6.176-3.228,7.872-3.225-7.872-2.5-6.176-1.77-4.347a3.52,3.52,0,0,0-3.172-1.988H92Z" transform="translate(-2 -2)" fill="#5f6162"/><path d="M131.863,39.911H127V66.875a2.094,2.094,0,0,0,2.092,2.091h4.862V42A2.089,2.089,0,0,0,131.863,39.911Z" transform="translate(-2 -2)" fill="#5f6162"/><path d="M191.9,62.711H178.66V57.464h8.282a2.085,2.085,0,0,0,2.088-2.09V51.211H178.66V46.164h12.883a1.254,1.254,0,0,0,.2.043,1.063,1.063,0,0,0,.21-.043,2.065,2.065,0,0,0,1.887-2.049v-4.2H171.748V68.966h22.244V64.8A2.088,2.088,0,0,0,191.9,62.711Z" transform="translate(-2 -2)" fill="#5f6162"/><path d="M371.223,39.92h-11.4V68.957h11.4c8.931,0,15.414-6.1,15.414-14.6C386.638,45.994,380.155,39.92,371.223,39.92Zm-4.463,6.335h4.463c4.893,0,8.189,3.285,8.189,8.261,0,4.848-3.3,8.108-8.189,8.108H366.76Z" transform="translate(-2 -2)" fill="#5f6162"/><path d="M388.254,40.739h-1.242v-.828h3.381v.828h-1.242v3.252h-.9Z" transform="translate(-2 -2)" fill="#5f6162"/><path d="M391.081,39.911h.967l1.073,1.726,1.072-1.726h.968v4.08h-.892V41.328l-1.148,1.742H393.1l-1.137-1.726v2.646h-.88Z" transform="translate(-2 -2)" fill="#5f6162"/></g></svg>