<svg id="Layer_1" data-name="Layer 1" xmlns="http://www.w3.org/2000/svg" width="241.462" height="72" viewBox="0 0 241.462 72"><title>logo-bc-once</title><g id="Once"><path d="M179.26,62.423v0c-1.054-1.272-2.578-.669-3.307-.264l-.422.264v-.011a10.288,10.288,0,0,1-5.36,1.326c-4.328,0-7.831-3.514-8.38-7.965a10.158,10.158,0,0,1,0-2.6c.548-4.451,4.052-7.965,8.38-7.965a10.288,10.288,0,0,1,5.361,1.327v-.008l.081.056c.132.077.264.154.395.237a2.491,2.491,0,0,0,3.253-.293l2.7-3.257a15.766,15.766,0,0,0-10.166-3.993c-.449-.031-.9-.05-1.372-.05h-.042c-.158,0-.308.018-.464.022-8.9.236-14.989,6.583-14.989,15.136v.168c0,8.553,6.089,14.9,14.989,15.137.156,0,.307.022.464.022h.042c.49,0,.969-.018,1.438-.052a15.739,15.739,0,0,0,8.028-2.453,1.64,1.64,0,0,0,.238-.161,19.982,19.982,0,0,0,1.832-1.376Z" transform="translate(-2 -2)" fill="#5f6162"/><path d="M148.2,39.9H143.33V57L130.965,40.734v.06a2.062,2.062,0,0,0-1.672-.891h-4.874v27.05a2.1,2.1,0,0,0,2.1,2.1h4.877V51.344L143.867,68.35l0-.031a2.076,2.076,0,0,0,1.561.731H150.3V39.9Z" transform="translate(-2 -2)" fill="#5f6162"/><path d="M104.643,39.481A15.074,15.074,0,0,0,89.209,54.554c0,8.5,6.6,14.913,15.355,14.913A15.071,15.071,0,0,0,120,54.4C120,45.9,113.4,39.481,104.643,39.481Zm-.079,6.454c4.682,0,8.213,3.675,8.213,8.62a8.118,8.118,0,0,1-8.134,8.463c-4.69,0-8.219-3.669-8.219-8.619A8.124,8.124,0,0,1,104.564,45.935Z" transform="translate(-2 -2)" fill="#5f6162"/><path d="M207.337,62.736H194.115V57.5h8.268a2.082,2.082,0,0,0,2.085-2.087V51.255H194.115V46.216h12.862a1.238,1.238,0,0,0,.2.043,1.053,1.053,0,0,0,.21-.043,2.061,2.061,0,0,0,1.884-2.046v-4.2H187.215V68.98h22.207V64.82A2.085,2.085,0,0,0,207.337,62.736Z" transform="translate(-2 -2)" fill="#5f6162"/><path d="M214.251,40.834h-1.242v-.828h3.381v.828h-1.242v3.252h-.9Z" transform="translate(-2 -2)" fill="#5f6162"/><path d="M217.079,40.005h.967l1.073,1.726,1.072-1.726h.968v4.08h-.892V41.422l-1.148,1.742H219.1l-1.137-1.726v2.646h-.88Z" transform="translate(-2 -2)" fill="#5f6162"/><path d="M59.639,38A17.645,17.645,0,1,1,42,20.237,17.7,17.7,0,0,1,59.639,38ZM81.1,41.829,64.845,70.166A8.422,8.422,0,0,1,58.254,74H25.746a8.428,8.428,0,0,1-6.587-3.834L2.911,41.829a8.513,8.513,0,0,1,0-7.663L19.16,5.838A8.428,8.428,0,0,1,25.746,2H58.254a8.422,8.422,0,0,1,6.591,3.838L81.1,34.166A8.61,8.61,0,0,1,81.1,41.829ZM68.681,38A26.68,26.68,0,1,0,42,64.855,26.773,26.773,0,0,0,68.681,38Z" transform="translate(-2 -2)" fill="#bace11"/><path d="M157.8,9.02v.007l-.143-.007h-.017a6.306,6.306,0,0,0-5.287,2.545l-.262.35v-7.6h-1.839V25.562H152.1V16.232a5.285,5.285,0,0,1,5.35-5.5c3.116.017,4.873,2.053,4.883,5.264l0,9.559h1.835V15.706a6.876,6.876,0,0,0-1.72-4.8A6.27,6.27,0,0,0,157.8,9.02Z" transform="translate(-2 -2)" fill="#a0a0a0"/><polygon points="223.777 7.387 217.948 20.982 217.82 21.291 211.926 7.387 209.808 7.387 217.068 23.678 218.57 23.678 225.834 7.387 223.777 7.387" fill="#a0a0a0"/><path d="M190.968,21.713a6.9,6.9,0,0,1-5.1,2.475,6.506,6.506,0,0,1-6.365-6.721v-.051a6.389,6.389,0,0,1,6.246-6.653,6.968,6.968,0,0,1,5.16,2.558l.072.057.049.06,1.307-1.344-.107-.111a8.489,8.489,0,0,0-6.439-2.964l-.154.019V9.02a8.386,8.386,0,0,0-8.1,8.447v.072a8.317,8.317,0,0,0,8.226,8.39h.025a8.309,8.309,0,0,0,6.569-3.2l.059-.055.048-.06-1.3-1.145-.086.118-.108.123Z" transform="translate(-2 -2)" fill="#a0a0a0"/><path d="M194.137,17.467v.072a8.26,8.26,0,0,0,8.267,8.39,8.366,8.366,0,0,0,8.343-8.462v-.051a8.306,8.306,0,1,0-16.61.051Zm8.274-6.7a6.48,6.48,0,0,1,6.362,6.7v.072a6.374,6.374,0,0,1-6.3,6.649,6.5,6.5,0,0,1-6.377-6.721v-.051A6.383,6.383,0,0,1,202.411,10.763Z" transform="translate(-2 -2)" fill="#a0a0a0"/><path d="M169.723,4.318h-1.842V18.854h.008l.005.134a6.98,6.98,0,0,0,6.975,6.691h.635V23.822h-.475v0l-.2,0a5.126,5.126,0,0,1-5.106-5.127V11.1H175.5V9.387h-5.781Z" transform="translate(-2 -2)" fill="#a0a0a0"/><path d="M111.8,25.552h1.818V17.807a6.9,6.9,0,0,1,6.9-6.9h.158V9.086h-.158a8.727,8.727,0,0,0-8.719,8.729Z" transform="translate(-2 -2)" fill="#a0a0a0"/><rect x="122.197" y="7.387" width="1.839" height="16.174" fill="#a0a0a0"/><path d="M100.335,9.02a8.139,8.139,0,0,0-6.123,2.7l-.252.27V4.318H92V17.539a8.267,8.267,0,0,0,8.265,8.39,8.36,8.36,0,0,0,8.341-8.462v-.051A8.271,8.271,0,0,0,100.335,9.02Zm6.312,8.519a6.389,6.389,0,0,1-6.312,6.649,6.493,6.493,0,0,1-6.375-6.721v-.051a6.39,6.39,0,0,1,6.316-6.653,6.489,6.489,0,0,1,6.371,6.7Z" transform="translate(-2 -2)" fill="#a0a0a0"/><path d="M129.476,17.467v.072a8.265,8.265,0,0,0,8.268,8.39,8.181,8.181,0,0,0,6.274-2.855l.249-.294v1.845a6.92,6.92,0,0,1-6.9,6.9h-.155v1.818h.155a8.724,8.724,0,0,0,8.723-8.719v-7.21a8.306,8.306,0,1,0-16.61.051Zm8.268-6.7a6.485,6.485,0,0,1,6.378,6.7v.072a6.388,6.388,0,0,1-6.308,6.649,6.487,6.487,0,0,1-6.372-6.721v-.051A6.378,6.378,0,0,1,137.743,10.763Z" transform="translate(-2 -2)" fill="#a0a0a0"/><path d="M243.462,17.395c-.044-4.719-2.923-8.368-7.437-8.375-4.385,0-7.678,3.741-7.678,8.427v.06c0,5.018,3.676,8.422,7.925,8.422h.028a8.514,8.514,0,0,0,6.652-3.029l.056-.069.058-.051-1.306-1.134-.1.1a6.97,6.97,0,0,1-5.324,2.444,6.085,6.085,0,0,1-6.032-5.781l-.017-.149h13.116l.012-.144a3.4,3.4,0,0,0,.044-.439Zm-13.171-.824.017-.161c.4-3.264,2.679-5.648,5.6-5.681h.055c3.409,0,5.19,2.65,5.507,5.681l.011.161Z" transform="translate(-2 -2)" fill="#a0a0a0"/></g></svg>