<?xml version="1.0" encoding="utf-8"?>
<svg id="Layer_1" data-name="Layer 1" width="336.699" height="112px" viewBox="0 0 336.699 112" xmlns="http://www.w3.org/2000/svg">
  <title>logo-bc-zencoder</title>
  <g id="Zencoder" transform="matrix(1, 0, 0, 1, 0, 20)">
    <path d="M324.58,58.716A9.569,9.569,0,0,0,329.416,50c0-6.148-4.388-10.122-11.174-10.122h-11.9V68.858h4.925a1.986,1.986,0,0,0,1.989-1.99v-6.5h4.384c.164,0,.32-.013.482-.017l4.663,7.306a3.751,3.751,0,0,0,3.121,1.225h5.531Zm-11.328-12.53h4.463c2.989,0,4.7,1.436,4.7,4.019,0,2.355-1.841,3.941-4.584,3.941h-4.583Z" transform="translate(-2 -2)" fill="#5f6162"/>
    <path d="M143.263,62.688h-13.25V57.44H138.3a2.085,2.085,0,0,0,2.088-2.091V51.184H130.013V46.134H142.9a1.322,1.322,0,0,0,.206.043,1.176,1.176,0,0,0,.209-.043,2.069,2.069,0,0,0,1.888-2.052v-4.2H123.1V68.948h22.255v-4.17A2.089,2.089,0,0,0,143.263,62.688Z" transform="translate(-2 -2)" fill="#5f6162"/>
    <path d="M176.132,39.879h-4.861V56.927L158.939,40.707v.06a2.056,2.056,0,0,0-1.668-.888H152.41V66.857a2.094,2.094,0,0,0,2.09,2.091h4.864V51.289L171.806,68.25l0-.031a2.071,2.071,0,0,0,1.557.729h4.865V39.879Z" transform="translate(-2 -2)" fill="#5f6162"/>
    <path d="M116.046,42.147l0,0V39.879H92.336v4.173a2.09,2.09,0,0,0,2.091,2.087h12.835L94.12,61.434h0c-1.256,1.611-2.2,2.769-2.281,5.287v2.227H116.05V64.777a2.09,2.09,0,0,0-2.09-2.089H100.624L114.055,47.06A7.474,7.474,0,0,0,116.046,42.147Z" transform="translate(-2 -2)" fill="#5f6162"/>
    <path d="M258.672,39.953h-11.4V68.989h11.4c8.931,0,15.414-6.1,15.414-14.6C274.087,46.026,267.6,39.953,258.672,39.953Zm-4.463,6.335h4.463c4.893,0,8.189,3.285,8.189,8.261,0,4.848-3.3,8.108-8.189,8.108h-4.463Z" transform="translate(-2 -2)" fill="#5f6162"/>
    <path d="M299.129,62.641H285.907V57.4h8.268a2.082,2.082,0,0,0,2.085-2.087V51.16H285.907V46.121h12.862a2.154,2.154,0,0,0,.411,0,2.061,2.061,0,0,0,1.884-2.046v-4.2H279.007V68.886h22.207v-4.16A2.085,2.085,0,0,0,299.129,62.641Z" transform="translate(-2 -2)" fill="#5f6162"/>
    <path d="M207.548,62.36v0c-1.054-1.272-2.578-.669-3.307-.264l-.422.264v-.011a10.287,10.287,0,0,1-5.36,1.326c-4.328,0-7.831-3.514-8.38-7.965a10.157,10.157,0,0,1,0-2.6c.549-4.451,4.052-7.964,8.38-7.964a10.288,10.288,0,0,1,5.361,1.327v-.008l.08.056c.132.077.264.154.395.237a2.491,2.491,0,0,0,3.253-.293l2.7-3.257A15.766,15.766,0,0,0,200.08,39.22c-.449-.031-.9-.05-1.372-.05h-.041c-.158,0-.308.018-.464.022-8.9.236-14.989,6.584-14.989,15.136V54.5c0,8.553,6.089,14.9,14.989,15.137.156,0,.307.022.464.022h.041c.49,0,.969-.018,1.438-.052a15.739,15.739,0,0,0,8.028-2.453,1.658,1.658,0,0,0,.238-.161,20,20,0,0,0,1.832-1.376Z" transform="translate(-2 -2)" fill="#5f6162"/>
    <path d="M227.3,39.393a15.1,15.1,0,0,0-15.459,15.1c0,8.519,6.611,14.938,15.38,14.938a15.1,15.1,0,0,0,15.46-15.094C242.679,45.821,236.069,39.393,227.3,39.393Zm-.079,6.465c4.69,0,8.227,3.681,8.227,8.634a8.132,8.132,0,0,1-8.147,8.477c-4.7,0-8.233-3.675-8.233-8.633A8.138,8.138,0,0,1,227.219,45.857Z" transform="translate(-2 -2)" fill="#5f6162"/>
    <path d="M331.791,40.707h-1.242v-.828h3.381v.828h-1.242v3.252h-.9Z" transform="translate(-2 -2)" fill="#5f6162"/>
    <path d="M334.618,39.879h.967l1.073,1.726,1.072-1.726h.968v4.08h-.892V41.3l-1.148,1.742h-.023L335.5,41.313v2.646h-.88Z" transform="translate(-2 -2)" fill="#5f6162"/>
    <path d="M59.639,38A17.645,17.645,0,1,1,42,20.237,17.7,17.7,0,0,1,59.639,38ZM81.1,41.829,64.845,70.166A8.422,8.422,0,0,1,58.254,74H25.746a8.428,8.428,0,0,1-6.587-3.834L2.911,41.829a8.513,8.513,0,0,1,0-7.663L19.16,5.838A8.428,8.428,0,0,1,25.746,2H58.254a8.422,8.422,0,0,1,6.591,3.838L81.1,34.166A8.61,8.61,0,0,1,81.1,41.829ZM68.681,38A26.68,26.68,0,1,0,42,64.855,26.773,26.773,0,0,0,68.681,38Z" transform="translate(-2 -2)" fill="#40c4b5"/>
    <path d="M157.8,9.02v.007l-.143-.007h-.017a6.306,6.306,0,0,0-5.287,2.545l-.262.35v-7.6h-1.839V25.562H152.1V16.232a5.285,5.285,0,0,1,5.35-5.5c3.116.017,4.873,2.053,4.883,5.264l0,9.559h1.835V15.706a6.876,6.876,0,0,0-1.72-4.8A6.27,6.27,0,0,0,157.8,9.02Z" transform="translate(-2 -2)" fill="#a0a0a0"/>
    <polygon points="223.777 7.387 217.948 20.982 217.82 21.291 211.926 7.387 209.808 7.387 217.068 23.678 218.57 23.678 225.834 7.387 223.777 7.387" fill="#a0a0a0"/>
    <path d="M190.968,21.713a6.9,6.9,0,0,1-5.1,2.475,6.506,6.506,0,0,1-6.365-6.721v-.051a6.389,6.389,0,0,1,6.246-6.653,6.968,6.968,0,0,1,5.16,2.558l.072.057.049.06,1.307-1.344-.107-.111a8.489,8.489,0,0,0-6.439-2.964l-.154.019V9.02a8.386,8.386,0,0,0-8.1,8.447v.072a8.317,8.317,0,0,0,8.226,8.39h.025a8.309,8.309,0,0,0,6.569-3.2l.059-.055.048-.06-1.3-1.145-.086.118-.108.123Z" transform="translate(-2 -2)" fill="#a0a0a0"/>
    <path d="M194.137,17.467v.072a8.26,8.26,0,0,0,8.267,8.39,8.366,8.366,0,0,0,8.343-8.462v-.051a8.306,8.306,0,1,0-16.61.051Zm8.274-6.7a6.48,6.48,0,0,1,6.362,6.7v.072a6.374,6.374,0,0,1-6.3,6.649,6.5,6.5,0,0,1-6.377-6.721v-.051A6.383,6.383,0,0,1,202.411,10.763Z" transform="translate(-2 -2)" fill="#a0a0a0"/>
    <path d="M169.723,4.318h-1.842V18.854h.008l.005.134a6.98,6.98,0,0,0,6.975,6.691h.635V23.822h-.475v0l-.2,0a5.126,5.126,0,0,1-5.106-5.127V11.1H175.5V9.387h-5.781Z" transform="translate(-2 -2)" fill="#a0a0a0"/>
    <path d="M111.8,25.552h1.818V17.807a6.9,6.9,0,0,1,6.9-6.9h.158V9.086h-.158a8.727,8.727,0,0,0-8.719,8.729Z" transform="translate(-2 -2)" fill="#a0a0a0"/>
    <rect x="122.197" y="7.387" width="1.839" height="16.174" fill="#a0a0a0"/>
    <path d="M100.335,9.02a8.139,8.139,0,0,0-6.123,2.7l-.252.27V4.318H92V17.539a8.267,8.267,0,0,0,8.265,8.39,8.36,8.36,0,0,0,8.341-8.462v-.051A8.271,8.271,0,0,0,100.335,9.02Zm6.312,8.519a6.389,6.389,0,0,1-6.312,6.649,6.493,6.493,0,0,1-6.375-6.721v-.051a6.39,6.39,0,0,1,6.316-6.653,6.489,6.489,0,0,1,6.371,6.7Z" transform="translate(-2 -2)" fill="#a0a0a0"/>
    <path d="M129.476,17.467v.072a8.265,8.265,0,0,0,8.268,8.39,8.181,8.181,0,0,0,6.274-2.855l.249-.294v1.845a6.92,6.92,0,0,1-6.9,6.9h-.155v1.818h.155a8.724,8.724,0,0,0,8.723-8.719v-7.21a8.306,8.306,0,1,0-16.61.051Zm8.268-6.7a6.485,6.485,0,0,1,6.378,6.7v.072a6.388,6.388,0,0,1-6.308,6.649,6.487,6.487,0,0,1-6.372-6.721v-.051A6.378,6.378,0,0,1,137.743,10.763Z" transform="translate(-2 -2)" fill="#a0a0a0"/>
    <path d="M243.462,17.395c-.044-4.719-2.923-8.368-7.437-8.375-4.385,0-7.678,3.741-7.678,8.427v.06c0,5.018,3.676,8.422,7.925,8.422h.028a8.514,8.514,0,0,0,6.652-3.029l.056-.069.058-.051-1.306-1.134-.1.1a6.97,6.97,0,0,1-5.324,2.444,6.085,6.085,0,0,1-6.032-5.781l-.017-.149h13.116l.012-.144a3.4,3.4,0,0,0,.044-.439Zm-13.171-.824.017-.161c.4-3.264,2.679-5.648,5.6-5.681h.055c3.409,0,5.19,2.65,5.507,5.681l.011.161Z" transform="translate(-2 -2)" fill="#a0a0a0"/>
  </g>
</svg>