<svg id="Layer_1" data-name="Layer 1" xmlns="http://www.w3.org/2000/svg" width="254.44" height="72" viewBox="0 0 254.44 72"><title>logo-bc-player</title><g id="Player"><path d="M246.57,48.28C246.57,42,242.12,38,235.23,38H223.16V67.4h5a2,2,0,0,0,2-2V58.8h4.45l.49,0,4.73,7.41A3.81,3.81,0,0,0,243,67.43h5.61l-6.95-10.31A9.7,9.7,0,0,0,246.57,48.28Zm-16.39-3.87h4.53c3,0,4.77,1.46,4.77,4.08,0,2.39-1.87,4-4.65,4h-4.65Z" fill="#5f6263"/><path d="M217.48,60.86H204.09v-5.3h8.37a2.11,2.11,0,0,0,2.11-2.11V49.24H204.09v-5.1h13a2.21,2.21,0,0,0,.42,0,2.09,2.09,0,0,0,1.91-2.07V37.81H197.1V67.19h22.49V63A2.11,2.11,0,0,0,217.48,60.86Z" fill="#5f6263"/><path d="M102.07,37.82H90V67.21h5a2,2,0,0,0,2-2V58.6h4.44c7.26,0,12-4.1,12-10.52C113.41,41.85,109,37.82,102.07,37.82Zm-.41,14.47H97V44.22h4.53c3,0,4.77,1.46,4.77,4.08C106.31,50.68,104.44,52.29,101.66,52.29Z" fill="#5f6263"/><path d="M134.89,60.73H122.44V40.15a2,2,0,0,0-2-2h-4.57V67.26h20.94V62.69A2,2,0,0,0,134.89,60.73Z" fill="#5f6162"/><path d="M159,39.9a2.65,2.65,0,0,0-2.5-1.54H152.1l-.09.21L139.78,67.3h4.86a3.49,3.49,0,0,0,3.15-2L149.55,61,152,54.87l3.21-7.82,3.2,7.82L160.92,61l1.75,4.32a3.51,3.51,0,0,0,3.15,2h4.86Z" fill="#5f6162"/><path d="M194.14,38h-6.52a3.7,3.7,0,0,0-2.65,1.7l-5.43,9.14-5.43-9.14a3.7,3.7,0,0,0-2.64-1.7h-6.53l11.15,17.56V67h5.18A1.79,1.79,0,0,0,183,65.17V55.5Z" fill="#5f6263"/><path d="M247.53,38.64h-1.24v-.83h3.38v.83h-1.24v3.25h-.9Z" fill="#5f6162"/><path d="M250.36,37.81h1l1.07,1.73,1.07-1.73h1v4.08h-.89V39.23L252.4,41h0l-1.14-1.73v2.65h-.88Z" fill="#5f6162"/><path d="M57.64,36A17.64,17.64,0,1,1,40,18.24,17.7,17.7,0,0,1,57.64,36ZM79.1,39.83,62.85,68.17A8.42,8.42,0,0,1,56.25,72H23.75a8.43,8.43,0,0,1-6.59-3.83L.91,39.83a8.51,8.51,0,0,1,0-7.66L17.16,3.84A8.43,8.43,0,0,1,23.75,0H56.25a8.42,8.42,0,0,1,6.59,3.84L79.1,32.17A8.61,8.61,0,0,1,79.1,39.83ZM66.68,36A26.68,26.68,0,1,0,40,62.85,26.77,26.77,0,0,0,66.68,36Z" fill="#2b83df"/><path d="M155.8,7h-.16a6.31,6.31,0,0,0-5.29,2.54l-.26.35V2.32h-1.84V23.56h1.84V14.23a5.29,5.29,0,0,1,5.35-5.5c3.12,0,4.87,2.05,4.88,5.26v9.56h1.84V13.71a6.88,6.88,0,0,0-1.72-4.8A6.27,6.27,0,0,0,155.8,7Z" fill="#a0a0a0"/><polygon points="223.78 7.39 217.95 20.98 217.82 21.29 211.93 7.39 209.81 7.39 217.07 23.68 218.57 23.68 225.83 7.39 223.78 7.39" fill="#a0a0a0"/><path d="M189,19.71a6.9,6.9,0,0,1-5.1,2.47,6.51,6.51,0,0,1-6.37-6.72v-.05a6.39,6.39,0,0,1,6.25-6.65,7,7,0,0,1,5.16,2.56l.07.06,0,.06,1.31-1.34-.11-.11a8.49,8.49,0,0,0-6.44-3l-.15,0V7a8.39,8.39,0,0,0-8.1,8.45v.07a8.32,8.32,0,0,0,8.23,8.39h0a8.31,8.31,0,0,0,6.57-3.2l.06-.05,0-.06-1.3-1.15-.09.12-.11.12Z" fill="#a0a0a0"/><path d="M192.14,15.47v.07a8.26,8.26,0,0,0,8.27,8.39,8.37,8.37,0,0,0,8.34-8.46v-.05a8.31,8.31,0,1,0-16.61.05Zm8.27-6.7a6.48,6.48,0,0,1,6.36,6.7v.07a6.37,6.37,0,0,1-6.3,6.65,6.49,6.49,0,0,1-6.38-6.72v-.05A6.38,6.38,0,0,1,200.41,8.76Z" fill="#a0a0a0"/><path d="M167.72,2.32h-1.84V16.85h0V17a7,7,0,0,0,7,6.69h.63V21.82h-.67a5.13,5.13,0,0,1-5.11-5.13V9.1h5.78V7.39h-5.78Z" fill="#a0a0a0"/><path d="M109.8,23.55h1.82V15.81a6.9,6.9,0,0,1,6.9-6.9h.16V7.09h-.16a8.73,8.73,0,0,0-8.72,8.73Z" fill="#a0a0a0"/><rect x="122.2" y="7.39" width="1.84" height="16.17" fill="#a0a0a0"/><path d="M98.33,7a8.14,8.14,0,0,0-6.12,2.7L92,10V2.32H90V15.54a8.27,8.27,0,0,0,8.27,8.39,8.36,8.36,0,0,0,8.34-8.46v-.05A8.27,8.27,0,0,0,98.33,7Zm6.31,8.52a6.39,6.39,0,0,1-6.31,6.65A6.49,6.49,0,0,1,92,15.47v-.05a6.39,6.39,0,0,1,6.32-6.65,6.49,6.49,0,0,1,6.37,6.7Z" fill="#a0a0a0"/><path d="M127.48,15.47v.07a8.26,8.26,0,0,0,8.27,8.39A8.18,8.18,0,0,0,142,21.07l.25-.29v1.85a6.92,6.92,0,0,1-6.9,6.9h-.16v1.82h.16a8.72,8.72,0,0,0,8.72-8.72V15.42a8.31,8.31,0,1,0-16.61.05Zm8.27-6.7a6.49,6.49,0,0,1,6.38,6.7v.07a6.39,6.39,0,0,1-6.31,6.65,6.49,6.49,0,0,1-6.37-6.72v-.05A6.38,6.38,0,0,1,135.74,8.76Z" fill="#a0a0a0"/><path d="M241.46,15.39c0-4.72-2.92-8.37-7.44-8.37s-7.68,3.74-7.68,8.43v.06c0,5,3.68,8.42,7.93,8.42h0a8.51,8.51,0,0,0,6.65-3l.06-.07.06-.05-1.31-1.13-.1.1a7,7,0,0,1-5.32,2.44,6.08,6.08,0,0,1-6-5.78l0-.15h13.12v-.14a3.4,3.4,0,0,0,0-.44Zm-13.17-.82,0-.16c.4-3.26,2.68-5.65,5.6-5.68H234c3.41,0,5.19,2.65,5.51,5.68v.16Z" fill="#a0a0a0"/></g></svg>
