<?xml version="1.0" encoding="utf-8"?>
<svg id="Layer_1" data-name="Layer 1" width="298.708" height="72" xmlns="http://www.w3.org/2000/svg" xmlns:bx="https://boxy-svg.com">
  <defs>
    <bx:grid x="-0.943" y="-14.174" width="306.855" height="99.2"/>
  </defs>
  <title>logo-bc-gallery</title>
  <g id="Gallery">
    <path d="M174.428,62.391H161.981V41.811a1.964,1.964,0,0,0-1.966-1.962h-4.568V68.925H176.39V64.357A1.964,1.964,0,0,0,174.428,62.391Z" transform="translate(-2 -2)" fill="#5f6162"/>
    <path d="M200.113,62.391H187.667V41.811a1.964,1.964,0,0,0-1.966-1.962h-4.568V68.925h20.943V64.357A1.964,1.964,0,0,0,200.113,62.391Z" transform="translate(-2 -2)" fill="#5f6162"/>
    <path d="M138.993,41.414a2.649,2.649,0,0,0-2.5-1.538H132.06l-.094.208L119.739,68.812H124.6a3.494,3.494,0,0,0,3.15-1.971l1.759-4.322,2.484-6.135L135.2,48.57l3.2,7.815,2.485,6.135,1.755,4.322a3.51,3.51,0,0,0,3.151,1.971h4.862Z" transform="translate(-2 -2)" fill="#5f6162"/>
    <path d="M253.61,58.7a9.564,9.564,0,0,0,4.834-8.711c0-6.144-4.385-10.116-11.169-10.116h-11.9V68.84H240.3a1.985,1.985,0,0,0,1.988-1.989V60.358h4.381c.164,0,.32-.013.482-.017l4.661,7.3a3.75,3.75,0,0,0,3.119,1.224h5.528ZM242.288,46.18h4.461c2.988,0,4.7,1.435,4.7,4.017,0,2.354-1.84,3.939-4.581,3.939h-4.581Z" transform="translate(-2 -2)" fill="#5f6162"/>
    <path d="M114.861,52.207H104.3v3.437a2.1,2.1,0,0,0,2.1,2.1h4.372v4.163a10.23,10.23,0,0,1-6.036,1.748c-5.162,0-8.826-3.913-8.826-9.242V54.33c0-4.954,3.705-9.075,8.368-9.075a10.171,10.171,0,0,1,5.3,1.311v-.007l.08.056c.131.076.261.152.391.234a2.463,2.463,0,0,0,3.217-.29l2.669-3.22c-3.039-2.581-6.2-4-11.448-4A14.958,14.958,0,0,0,89.209,54.414V54.5c0,8.618,6.245,14.988,15.32,14.988a18.914,18.914,0,0,0,12.448-4.621V52.207Z" transform="translate(-2 -2)" fill="#5f6162"/>
    <path d="M289.44,39.883h-6.524a3.7,3.7,0,0,0-2.646,1.7l-5.432,9.138-5.43-9.138a3.7,3.7,0,0,0-2.641-1.7h-6.533l11.145,17.565V68.834h5.18a1.786,1.786,0,0,0,1.785-1.786V57.372Z" transform="translate(-2 -2)" fill="#5f6263"/>
    <path d="M227.34,62.617H214.118V57.379h8.269a2.082,2.082,0,0,0,2.085-2.087V51.136H214.118V46.1H226.98a1.249,1.249,0,0,0,.2.043,1.057,1.057,0,0,0,.21-.043,2.061,2.061,0,0,0,1.884-2.046v-4.2H207.218V68.862h22.207V64.7A2.085,2.085,0,0,0,227.34,62.617Z" transform="translate(-2 -2)" fill="#5f6162"/>
    <path d="M293.8,40.711h-1.242v-.828h3.381v.828H294.7v3.252h-.9Z" transform="translate(-2 -2)" fill="#5f6162"/>
    <path d="M296.628,39.883h.967l1.073,1.726,1.072-1.726h.968v4.08h-.892V41.3l-1.148,1.742h-.023l-1.137-1.726v2.646h-.88Z" transform="translate(-2 -2)" fill="#5f6162"/>
    <path d="M59.639,38A17.645,17.645,0,1,1,42,20.237,17.7,17.7,0,0,1,59.639,38ZM81.1,41.829,64.845,70.166A8.422,8.422,0,0,1,58.254,74H25.746a8.428,8.428,0,0,1-6.587-3.834L2.911,41.829a8.513,8.513,0,0,1,0-7.663L19.16,5.838A8.428,8.428,0,0,1,25.746,2H58.254a8.422,8.422,0,0,1,6.591,3.838L81.1,34.166A8.61,8.61,0,0,1,81.1,41.829ZM68.681,38A26.68,26.68,0,1,0,42,64.855,26.773,26.773,0,0,0,68.681,38Z" transform="translate(-2 -2)" fill="#d5257c"/>
    <path d="M157.8,9.02v.007l-.143-.007h-.017a6.306,6.306,0,0,0-5.287,2.545l-.262.35v-7.6h-1.839V25.562H152.1V16.232a5.285,5.285,0,0,1,5.35-5.5c3.116.017,4.873,2.053,4.883,5.264l0,9.559h1.835V15.706a6.876,6.876,0,0,0-1.72-4.8A6.27,6.27,0,0,0,157.8,9.02Z" transform="translate(-2 -2)" fill="#a0a0a0"/>
    <polygon points="223.777 7.387 217.948 20.982 217.82 21.291 211.926 7.387 209.808 7.387 217.068 23.678 218.57 23.678 225.834 7.387 223.777 7.387" fill="#a0a0a0"/>
    <path d="M190.968,21.713a6.9,6.9,0,0,1-5.1,2.475,6.506,6.506,0,0,1-6.365-6.721v-.051a6.389,6.389,0,0,1,6.246-6.653,6.968,6.968,0,0,1,5.16,2.558l.072.057.049.06,1.307-1.344-.107-.111a8.489,8.489,0,0,0-6.439-2.964l-.154.019V9.02a8.386,8.386,0,0,0-8.1,8.447v.072a8.317,8.317,0,0,0,8.226,8.39h.025a8.309,8.309,0,0,0,6.569-3.2l.059-.055.048-.06-1.3-1.145-.086.118-.108.123Z" transform="translate(-2 -2)" fill="#a0a0a0"/>
    <path d="M194.137,17.467v.072a8.26,8.26,0,0,0,8.267,8.39,8.366,8.366,0,0,0,8.343-8.462v-.051a8.306,8.306,0,1,0-16.61.051Zm8.274-6.7a6.48,6.48,0,0,1,6.362,6.7v.072a6.374,6.374,0,0,1-6.3,6.649,6.5,6.5,0,0,1-6.377-6.721v-.051A6.383,6.383,0,0,1,202.411,10.763Z" transform="translate(-2 -2)" fill="#a0a0a0"/>
    <path d="M169.723,4.318h-1.842V18.854h.008l.005.134a6.98,6.98,0,0,0,6.975,6.691h.635V23.822h-.475v0l-.2,0a5.126,5.126,0,0,1-5.106-5.127V11.1H175.5V9.387h-5.781Z" transform="translate(-2 -2)" fill="#a0a0a0"/>
    <path d="M111.8,25.552h1.818V17.807a6.9,6.9,0,0,1,6.9-6.9h.158V9.086h-.158a8.727,8.727,0,0,0-8.719,8.729Z" transform="translate(-2 -2)" fill="#a0a0a0"/>
    <rect x="122.197" y="7.387" width="1.839" height="16.174" fill="#a0a0a0"/>
    <path d="M100.335,9.02a8.139,8.139,0,0,0-6.123,2.7l-.252.27V4.318H92V17.539a8.267,8.267,0,0,0,8.265,8.39,8.36,8.36,0,0,0,8.341-8.462v-.051A8.271,8.271,0,0,0,100.335,9.02Zm6.312,8.519a6.389,6.389,0,0,1-6.312,6.649,6.493,6.493,0,0,1-6.375-6.721v-.051a6.39,6.39,0,0,1,6.316-6.653,6.489,6.489,0,0,1,6.371,6.7Z" transform="translate(-2 -2)" fill="#a0a0a0"/>
    <path d="M129.476,17.467v.072a8.265,8.265,0,0,0,8.268,8.39,8.181,8.181,0,0,0,6.274-2.855l.249-.294v1.845a6.92,6.92,0,0,1-6.9,6.9h-.155v1.818h.155a8.724,8.724,0,0,0,8.723-8.719v-7.21a8.306,8.306,0,1,0-16.61.051Zm8.268-6.7a6.485,6.485,0,0,1,6.378,6.7v.072a6.388,6.388,0,0,1-6.308,6.649,6.487,6.487,0,0,1-6.372-6.721v-.051A6.378,6.378,0,0,1,137.743,10.763Z" transform="translate(-2 -2)" fill="#a0a0a0"/>
    <path d="M243.462,17.395c-.044-4.719-2.923-8.368-7.437-8.375-4.385,0-7.678,3.741-7.678,8.427v.06c0,5.018,3.676,8.422,7.925,8.422h.028a8.514,8.514,0,0,0,6.652-3.029l.056-.069.058-.051-1.306-1.134-.1.1a6.97,6.97,0,0,1-5.324,2.444,6.085,6.085,0,0,1-6.032-5.781l-.017-.149h13.116l.012-.144a3.4,3.4,0,0,0,.044-.439Zm-13.171-.824.017-.161c.4-3.264,2.679-5.648,5.6-5.681h.055c3.409,0,5.19,2.65,5.507,5.681l.011.161Z" transform="translate(-2 -2)" fill="#a0a0a0"/>
  </g>
</svg>