<svg id="Layer_1" data-name="Layer 1" xmlns="http://www.w3.org/2000/svg" width="241.46" height="72" viewBox="0 0 241.46 72"><title>logo-bc-ssai</title><g id="SSAI"><path d="M178.37,37.92H173.5v27A2.09,2.09,0,0,0,175.6,67h4.86V40A2.09,2.09,0,0,0,178.37,37.92Z" fill="#5f6162"/><path d="M159,39.47a2.65,2.65,0,0,0-2.5-1.54h-4.43l-.09.21L139.75,66.87h4.86a3.49,3.49,0,0,0,3.15-2l1.76-4.32L152,54.44l3.21-7.82,3.2,7.82,2.48,6.14,1.75,4.32a3.51,3.51,0,0,0,3.15,2h4.86Z" fill="#5f6162"/><path d="M102.38,67.48A18.56,18.56,0,0,1,90,62.81l2.55-3.06a2,2,0,0,1,2.74-.35,12.42,12.42,0,0,0,7.21,2.4c2.63,0,4.21-1,4.21-2.75V59c0-1.63-1-2.46-5.88-3.71-5.88-1.5-9.67-3.13-9.67-8.92v-.08c0-5.29,4.25-8.79,10.21-8.79a16.88,16.88,0,0,1,10.83,3.71L110,44.4a2,2,0,0,1-2.66.63,12.15,12.15,0,0,0-6-1.89c-2.46,0-3.75,1.13-3.75,2.54v.08c0,1.92,1.25,2.54,6.29,3.83,5.92,1.54,9.25,3.67,9.25,8.75v.08C113.09,64.23,108.67,67.48,102.38,67.48Z" fill="#5f6162"/><path d="M128.31,67.48a18.56,18.56,0,0,1-12.38-4.67l2.55-3.06a2,2,0,0,1,2.74-.35,12.42,12.42,0,0,0,7.21,2.4c2.63,0,4.21-1,4.21-2.75V59c0-1.63-1-2.46-5.88-3.71-5.88-1.5-9.67-3.13-9.67-8.92v-.08c0-5.29,4.25-8.79,10.21-8.79a16.88,16.88,0,0,1,10.83,3.71l-2.22,3.22a2,2,0,0,1-2.66.63,12.15,12.15,0,0,0-6-1.89c-2.46,0-3.75,1.13-3.75,2.54v.08c0,1.92,1.25,2.54,6.29,3.83,5.92,1.54,9.25,3.67,9.25,8.75v.08C139,64.23,134.6,67.48,128.31,67.48Z" fill="#5f6162"/><path d="M184.23,38.83H183V38h3.38v.83h-1.24v3.25h-.9Z" fill="#5f6162"/><path d="M187.06,38h1l1.07,1.73L190.17,38h1v4.08h-.89V39.42l-1.15,1.74h0l-1.14-1.73v2.65h-.88Z" fill="#5f6162"/><path d="M57.64,36A17.64,17.64,0,1,1,40,18.24,17.7,17.7,0,0,1,57.64,36ZM79.1,39.83,62.85,68.17A8.42,8.42,0,0,1,56.25,72H23.75a8.43,8.43,0,0,1-6.59-3.83L.91,39.83a8.51,8.51,0,0,1,0-7.66L17.16,3.84A8.43,8.43,0,0,1,23.75,0H56.25a8.42,8.42,0,0,1,6.59,3.84L79.1,32.17A8.61,8.61,0,0,1,79.1,39.83ZM66.68,36A26.68,26.68,0,1,0,40,62.85,26.77,26.77,0,0,0,66.68,36Z" fill="#bace11"/><path d="M155.8,7h-.16a6.31,6.31,0,0,0-5.29,2.54l-.26.35V2.32h-1.84V23.56h1.84V14.23a5.29,5.29,0,0,1,5.35-5.5c3.12,0,4.87,2.05,4.88,5.26v9.56h1.84V13.71a6.88,6.88,0,0,0-1.72-4.8A6.27,6.27,0,0,0,155.8,7Z" fill="#a0a0a0"/><polygon points="223.78 7.39 217.95 20.98 217.82 21.29 211.93 7.39 209.81 7.39 217.07 23.68 218.57 23.68 225.83 7.39 223.78 7.39" fill="#a0a0a0"/><path d="M189,19.71a6.9,6.9,0,0,1-5.1,2.47,6.51,6.51,0,0,1-6.37-6.72v-.05a6.39,6.39,0,0,1,6.25-6.65,7,7,0,0,1,5.16,2.56l.07.06,0,.06,1.31-1.34-.11-.11a8.49,8.49,0,0,0-6.44-3l-.15,0V7a8.39,8.39,0,0,0-8.1,8.45v.07a8.32,8.32,0,0,0,8.23,8.39h0a8.31,8.31,0,0,0,6.57-3.2l.06-.05,0-.06-1.3-1.15-.09.12-.11.12Z" fill="#a0a0a0"/><path d="M192.14,15.47v.07a8.26,8.26,0,0,0,8.27,8.39,8.37,8.37,0,0,0,8.34-8.46v-.05a8.31,8.31,0,1,0-16.61.05Zm8.27-6.7a6.48,6.48,0,0,1,6.36,6.7v.07a6.37,6.37,0,0,1-6.3,6.65,6.49,6.49,0,0,1-6.38-6.72v-.05A6.38,6.38,0,0,1,200.41,8.76Z" fill="#a0a0a0"/><path d="M167.72,2.32h-1.84V16.85h0V17a7,7,0,0,0,7,6.69h.63V21.82h-.67a5.13,5.13,0,0,1-5.11-5.13V9.1h5.78V7.39h-5.78Z" fill="#a0a0a0"/><path d="M109.8,23.55h1.82V15.81a6.9,6.9,0,0,1,6.9-6.9h.16V7.09h-.16a8.73,8.73,0,0,0-8.72,8.73Z" fill="#a0a0a0"/><rect x="122.2" y="7.39" width="1.84" height="16.17" fill="#a0a0a0"/><path d="M98.33,7a8.14,8.14,0,0,0-6.12,2.7L92,10V2.32H90V15.54a8.27,8.27,0,0,0,8.27,8.39,8.36,8.36,0,0,0,8.34-8.46v-.05A8.27,8.27,0,0,0,98.33,7Zm6.31,8.52a6.39,6.39,0,0,1-6.31,6.65A6.49,6.49,0,0,1,92,15.47v-.05a6.39,6.39,0,0,1,6.32-6.65,6.49,6.49,0,0,1,6.37,6.7Z" fill="#a0a0a0"/><path d="M127.48,15.47v.07a8.26,8.26,0,0,0,8.27,8.39A8.18,8.18,0,0,0,142,21.07l.25-.29v1.85a6.92,6.92,0,0,1-6.9,6.9h-.16v1.82h.16a8.72,8.72,0,0,0,8.72-8.72V15.42a8.31,8.31,0,1,0-16.61.05Zm8.27-6.7a6.49,6.49,0,0,1,6.38,6.7v.07a6.39,6.39,0,0,1-6.31,6.65,6.49,6.49,0,0,1-6.37-6.72v-.05A6.38,6.38,0,0,1,135.74,8.76Z" fill="#a0a0a0"/><path d="M241.46,15.39c0-4.72-2.92-8.37-7.44-8.37s-7.68,3.74-7.68,8.43v.06c0,5,3.68,8.42,7.93,8.42h0a8.51,8.51,0,0,0,6.65-3l.06-.07.06-.05-1.31-1.13-.1.1a7,7,0,0,1-5.32,2.44,6.08,6.08,0,0,1-6-5.78l0-.15h13.12v-.14a3.4,3.4,0,0,0,0-.44Zm-13.17-.82,0-.16c.4-3.26,2.68-5.65,5.6-5.68H234c3.41,0,5.19,2.65,5.51,5.68v.16Z" fill="#a0a0a0"/></g></svg>
