<?xml version="1.0" encoding="utf-8"?>
<!-- Generator: Adobe Illustrator 24.3.0, SVG Export Plug-In . SVG Version: 6.00 Build 0)  -->
<svg version="1.1" id="Layer_1" xmlns="http://www.w3.org/2000/svg" xmlns:xlink="http://www.w3.org/1999/xlink" x="0px" y="0px"
	 viewBox="0 0 135 135" style="enable-background:new 0 0 135 135;" xml:space="preserve">
<g>
	<path d="M100.9,78.7c-4.2-4.3-9.9-6.6-15.9-6.6H50c-6,0-11.7,2.3-15.9,6.6c-4.3,4.2-6.6,9.9-6.6,15.9v8.8c0,2.8,2.2,5,5,5
		s5-2.2,5-5v-8.8c0-3.3,1.3-6.5,3.7-8.8c2.4-2.4,5.5-3.7,8.8-3.7h35c3.3,0,6.5,1.3,8.8,3.7s3.7,5.5,3.7,8.8v8.8c0,2.8,2.2,5,5,5
		s5-2.2,5-5v-8.8C107.5,88.6,105.2,83,100.9,78.7z"/>
	<path d="M67.5,64.6C79.9,64.6,90,54.5,90,42.1S79.9,19.6,67.5,19.6S45,29.7,45,42.1S55.1,64.6,67.5,64.6z M67.5,29.6
		c6.9,0,12.5,5.6,12.5,12.5s-5.6,12.5-12.5,12.5C60.6,54.6,55,49,55,42.1S60.6,29.6,67.5,29.6z"/>
</g>
</svg>
