<?xml version="1.0" encoding="utf-8"?>
<!-- Generator: Adobe Illustrator 24.3.0, SVG Export Plug-In . SVG Version: 6.00 Build 0)  -->
<svg version="1.1" id="Layer_1" xmlns="http://www.w3.org/2000/svg" xmlns:xlink="http://www.w3.org/1999/xlink" x="0px" y="0px"
	 viewBox="0 0 146 146" style="enable-background:new 0 0 146 146;" xml:space="preserve">
<g>
	<path d="M71,77.5H36c-6.7,0-13,2.6-17.7,7.3c-4.7,4.7-7.3,11-7.3,17.7v10c0,2.8,2.2,5,5,5s5-2.2,5-5v-10c0-4,1.6-7.8,4.4-10.6
		c2.8-2.8,6.6-4.4,10.6-4.4h35c3.9,0,7.8,1.6,10.6,4.4s4.4,6.7,4.4,10.6v10c0,2.8,2.2,5,5,5s5-2.2,5-5v-10c0-6.7-2.6-13-7.3-17.7
		S77.7,77.5,71,77.5z"/>
	<path d="M53.5,67.5c13.8,0,25-11.2,25-25s-11.2-25-25-25s-25,11.2-25,25S39.7,67.5,53.5,67.5z M53.5,27.5c8.3,0,15,6.7,15,15
		s-6.7,15-15,15s-15-6.7-15-15S45.2,27.5,53.5,27.5z"/>
	<path d="M126,57.5h-10v-10c0-2.8-2.2-5-5-5s-5,2.2-5,5v10H96c-2.8,0-5,2.2-5,5s2.2,5,5,5h10v10c0,2.8,2.2,5,5,5s5-2.2,5-5v-10h10
		c2.8,0,5-2.2,5-5S128.8,57.5,126,57.5z"/>
</g>
</svg>
