<?xml version="1.0" encoding="utf-8"?>
<!-- Generator: Adobe Illustrator 24.3.0, SVG Export Plug-In . SVG Version: 6.00 Build 0)  -->
<svg version="1.1" id="Layer_1" xmlns="http://www.w3.org/2000/svg" xmlns:xlink="http://www.w3.org/1999/xlink" x="0px" y="0px"
	 viewBox="0 0 133.3 133.3" style="enable-background:new 0 0 133.3 133.3;" xml:space="preserve">
<g>
	<path d="M121.9,94.1L79.5,23.4c-1.3-2.2-3.2-4-5.5-5.3c-4.5-2.5-10.2-2.5-14.7,0c-2.2,1.3-4.1,3.1-5.5,5.3c0,0,0,0,0,0L11.4,94.2
		c-1.3,2.3-2,4.8-2,7.5c0,2.6,0.7,5.2,2,7.5c1.3,2.3,3.2,4.2,5.4,5.5c2.3,1.3,4.8,2,7.5,2.1h84.8c2.6,0,5.2-0.7,7.4-2.1
		c2.3-1.3,4.1-3.2,5.4-5.5c1.3-2.3,2-4.9,2-7.5C123.9,99,123.2,96.4,121.9,94.1z M113.3,104.1c-0.4,0.8-1.1,1.4-1.8,1.8
		c-0.7,0.4-1.6,0.7-2.4,0.7H24.4c-0.9,0-1.7-0.2-2.5-0.7c-0.7-0.4-1.4-1.1-1.8-1.8c-0.4-0.8-0.7-1.6-0.7-2.5c0-0.9,0.2-1.7,0.6-2.4
		l42.3-70.7c0.4-0.7,1.1-1.3,1.8-1.8c1.5-0.8,3.4-0.8,4.9,0c0.8,0.4,1.4,1,1.8,1.7l42.3,70.6c0.4,0.8,0.7,1.6,0.7,2.5
		S113.7,103.4,113.3,104.1z"/>
	<path d="M66.7,76.7c2.8,0,5-2.2,5-5v-20c0-2.8-2.2-5-5-5s-5,2.2-5,5v20C61.7,74.4,63.9,76.7,66.7,76.7z"/>
	<path d="M66.7,86.7L66.7,86.7c-2.8,0-5,2.2-5,5s2.3,5,5,5s5-2.2,5-5S69.5,86.7,66.7,86.7z"/>
</g>
</svg>
