<?xml version="1.0" encoding="utf-8"?>
<!-- Generator: Adobe Illustrator 24.3.0, SVG Export Plug-In . SVG Version: 6.00 Build 0)  -->
<svg version="1.1" id="Layer_1" xmlns="http://www.w3.org/2000/svg" xmlns:xlink="http://www.w3.org/1999/xlink" x="0px" y="0px"
	 viewBox="0 0 113 113" style="enable-background:new 0 0 113 113;" xml:space="preserve">
<path d="M97.6,54.9c0.3-0.6,0.4-1.3,0.4-1.9s-0.1-1.3-0.4-1.9c-0.3-0.6-0.6-1.2-1.1-1.6L60,13c-2-2-5.1-2-7.1,0s-2,5.1,0,7.1
	L80.9,48H20c-2.8,0-5,2.2-5,5c0,2.8,2.2,5,5,5h60.8L53,85.9c-2,2-2,5.1,0,7.1c1,1,2.3,1.5,3.5,1.5S59.1,94,60,93l36.5-36.5
	C96.9,56.1,97.3,55.5,97.6,54.9z"/>
</svg>
