<?xml version="1.0" encoding="utf-8"?>
<!-- Generator: Adobe Illustrator 24.3.0, SVG Export Plug-In . SVG Version: 6.00 Build 0)  -->
<svg version="1.1" id="Layer_1" xmlns="http://www.w3.org/2000/svg" xmlns:xlink="http://www.w3.org/1999/xlink" x="0px" y="0px"
	 viewBox="0 0 162 162" style="enable-background:new 0 0 162 162;" xml:space="preserve">
<path d="M132.5,87l-15-15c-1.5-1.5-3.6-1.8-5.4-1.1L106.4,42c-0.4-1.9-1.8-3.4-3.7-3.9L30.2,20.6c-0.3-0.1-0.7-0.1-1-0.1
	c-0.1,0-0.2,0-0.2,0c-0.6,0-1.1,0.1-1.6,0.3c-0.1,0-0.3,0.1-0.4,0.2c-0.5,0.2-1,0.5-1.5,1c-0.4,0.4-0.7,0.9-1,1.5
	c-0.1,0.1-0.1,0.2-0.2,0.4c-0.2,0.5-0.3,1.1-0.3,1.7c0,0.1,0,0.1,0,0.2c0,0.3,0,0.7,0.1,1l17.5,72.5c0.5,1.9,2,3.3,3.9,3.7l28.8,5.8
	c-0.7,1.8-0.3,3.9,1.1,5.4l15,15c1,1,2.3,1.5,3.5,1.5s2.6-0.5,3.5-1.5l35-35C134.5,92.1,134.5,88.9,132.5,87z M38,41.6l22.5,22.5
	c-0.9,2-1.5,4.1-1.5,6.4c0,8.3,6.7,15,15,15s15-6.7,15-15s-6.7-15-15-15c-2.3,0-4.5,0.6-6.4,1.5L45.1,34.5l52.1,12.6l6.3,31.7
	l-21.2,21.2l-31.7-6.3L38,41.6z M74,65.5c2.8,0,5,2.2,5,5s-2.2,5-5,5s-5-2.2-5-5S71.2,65.5,74,65.5z M94,118.4l-7.9-7.9l1.5-1.5
	l25-25l1.5-1.5l7.9,7.9L94,118.4z"/>
</svg>
