<?xml version="1.0" encoding="utf-8"?>
<!-- Generator: Adobe Illustrator 24.3.0, SVG Export Plug-In . SVG Version: 6.00 Build 0)  -->
<svg version="1.1" id="Layer_1" xmlns="http://www.w3.org/2000/svg" xmlns:xlink="http://www.w3.org/1999/xlink" x="0px" y="0px"
	 viewBox="0 0 109.6 109.6" style="enable-background:new 0 0 109.6 109.6;" xml:space="preserve">
<path d="M84,16.5h-7.5v-3.3c0-2.8-2.2-5-5-5s-5,2.2-5,5v3.3H43.1v-3.3c0-2.8-2.2-5-5-5s-5,2.2-5,5v3.3h-7.5c-7.4,0-13.3,6-13.3,13.3
	v58.3c0,7.3,6,13.3,13.3,13.3H84c7.4,0,13.3-6,13.3-13.3V29.8C97.3,22.4,91.3,16.5,84,16.5z M25.6,26.5h7.5v3.3c0,2.8,2.2,5,5,5
	s5-2.2,5-5v-3.3h23.3v3.3c0,2.8,2.2,5,5,5s5-2.2,5-5v-3.3H84c1.8,0,3.3,1.5,3.3,3.3v11.7h-65V29.8C22.3,28,23.8,26.5,25.6,26.5z
	 M84,91.5H25.6c-1.8,0-3.3-1.5-3.3-3.3V51.5h65v36.7C87.3,90,85.8,91.5,84,91.5z"/>
</svg>
