<?xml version="1.0" encoding="utf-8"?>
<!-- Generator: Adobe Illustrator 24.3.0, SVG Export Plug-In . SVG Version: 6.00 Build 0)  -->
<svg version="1.1" id="Layer_1" xmlns="http://www.w3.org/2000/svg" xmlns:xlink="http://www.w3.org/1999/xlink" x="0px" y="0px"
	 viewBox="0 0 178 178" style="enable-background:new 0 0 178 178;" xml:space="preserve">
<g>
	<path d="M116.8,55L74.5,97.3L57.2,80c-2-2-5.1-2-7.1,0s-2,5.1,0,7.1L71,107.9c0.9,0.9,2.2,1.5,3.5,1.5s2.6-0.5,3.5-1.5L123.9,62
		c2-2,2-5.1,0-7.1S118.8,53,116.8,55z"/>
	<path d="M87,3.5c-44.1,0-80,35.9-80,80s35.9,80,80,80s80-35.9,80-80S131.1,3.5,87,3.5z M87,153.5c-38.6,0-70-31.4-70-70
		s31.4-70,70-70s70,31.4,70,70S125.6,153.5,87,153.5z"/>
</g>
</svg>
