<?xml version="1.0" encoding="utf-8"?>
<!-- Generator: Adobe Illustrator 24.3.0, SVG Export Plug-In . SVG Version: 6.00 Build 0)  -->
<svg version="1.1" id="Layer_1" xmlns="http://www.w3.org/2000/svg" xmlns:xlink="http://www.w3.org/1999/xlink" x="0px" y="0px"
	 viewBox="0 0 130 130" style="enable-background:new 0 0 130 130;" xml:space="preserve">
<g>
	<path d="M65,14.2C37,14.2,14.2,37,14.2,65c0,28,22.8,50.8,50.8,50.8c28,0,50.8-22.8,50.8-50.8C115.8,37,93,14.2,65,14.2z M65,105.8
		c-22.5,0-40.8-18.3-40.8-40.8S42.5,24.2,65,24.2s40.8,18.3,40.8,40.8S87.5,105.8,65,105.8z"/>
	<path d="M85.6,69.7L70,61.9V37.5c0-2.8-2.2-5-5-5s-5,2.2-5,5V65c0,1.9,1.1,3.6,2.8,4.5l18.3,9.2c0.7,0.4,1.5,0.5,2.2,0.5
		c1.8,0,3.6-1,4.5-2.8C89,73.9,88,70.9,85.6,69.7z"/>
</g>
</svg>
