<?xml version="1.0" encoding="utf-8"?>
<!-- Generator: Adobe Illustrator 24.3.0, SVG Export Plug-In . SVG Version: 6.00 Build 0)  -->
<svg version="1.1" id="Layer_1" xmlns="http://www.w3.org/2000/svg" xmlns:xlink="http://www.w3.org/1999/xlink" x="0px" y="0px"
	 viewBox="0 0 124 124" style="enable-background:new 0 0 124 124;" xml:space="preserve">
<path d="M67.1,56.5L103.5,20c2-2,2-5.1,0-7.1s-5.1-2-7.1,0L60,49.4L23.5,13c-2-2-5.1-2-7.1,0s-2,5.1,0,7.1l36.5,36.5L16.5,93
	c-2,2-2,5.1,0,7.1c1,1,2.3,1.5,3.5,1.5s2.6-0.5,3.5-1.5L60,63.6L96.5,100c1,1,2.3,1.5,3.5,1.5s2.6-0.5,3.5-1.5c2-2,2-5.1,0-7.1
	L67.1,56.5z"/>
</svg>
