<?xml version="1.0" encoding="utf-8"?>
<!-- Generator: Adobe Illustrator 24.3.0, SVG Export Plug-In . SVG Version: 6.00 Build 0)  -->
<svg version="1.1" id="Layer_1" xmlns="http://www.w3.org/2000/svg" xmlns:xlink="http://www.w3.org/1999/xlink" x="0px" y="0px"
	 viewBox="0 0 138 138" style="enable-background:new 0 0 138 138;" xml:space="preserve">
<g>
	<path d="M112,73.5c-2.8,0-5,2.2-5,5v20c0,1.3-0.5,2.6-1.5,3.5s-2.2,1.5-3.5,1.5H32c-1.3,0-2.6-0.5-3.5-1.5
		c-0.9-0.9-1.5-2.2-1.5-3.5v-20c0-2.8-2.2-5-5-5s-5,2.2-5,5v20c0,4,1.6,7.8,4.4,10.6c2.8,2.8,6.6,4.4,10.6,4.4h70
		c4,0,7.8-1.6,10.6-4.4s4.4-6.6,4.4-10.6v-20C117,75.7,114.8,73.5,112,73.5z"/>
	<path d="M63.5,82c0.5,0.5,1,0.8,1.6,1.1c0.6,0.3,1.3,0.4,1.9,0.4s1.3-0.1,1.9-0.4c0.6-0.3,1.2-0.6,1.6-1.1l25-25c2-2,2-5.1,0-7.1
		s-5.1-2-7.1,0L72,66.4V18.5c0-2.8-2.2-5-5-5s-5,2.2-5,5v47.9L45.5,50c-2-2-5.1-2-7.1,0s-2,5.1,0,7.1L63.5,82z"/>
</g>
</svg>
