<?xml version="1.0" encoding="utf-8"?>
<!-- Generator: Adobe Illustrator 24.3.0, SVG Export Plug-In . SVG Version: 6.00 Build 0)  -->
<svg version="1.1" id="Layer_1" xmlns="http://www.w3.org/2000/svg" xmlns:xlink="http://www.w3.org/1999/xlink" x="0px" y="0px"
	 viewBox="0 0 142 142" style="enable-background:new 0 0 142 142;" xml:space="preserve">
<g>
	<path d="M121.5,60.5h-105c-2.8,0-5,2.2-5,5s2.2,5,5,5h105c2.8,0,5-2.2,5-5S124.3,60.5,121.5,60.5z"/>
	<path d="M16.5,35.5h105c2.8,0,5-2.2,5-5s-2.2-5-5-5h-105c-2.8,0-5,2.2-5,5S13.7,35.5,16.5,35.5z"/>
	<path d="M121.5,95.5h-105c-2.8,0-5,2.2-5,5s2.2,5,5,5h105c2.8,0,5-2.2,5-5S124.3,95.5,121.5,95.5z"/>
</g>
</svg>
