<?xml version="1.0" encoding="utf-8"?>
<!-- Generator: Adobe Illustrator 24.3.0, SVG Export Plug-In . SVG Version: 6.00 Build 0)  -->
<svg version="1.1" id="Layer_1" xmlns="http://www.w3.org/2000/svg" xmlns:xlink="http://www.w3.org/1999/xlink" x="0px" y="0px"
	 viewBox="0 0 152 152" style="enable-background:new 0 0 152 152;" xml:space="preserve">
<path d="M130.5,73.9c0,0,0-0.1,0-0.1l-17.2-34.4c-1.2-2.5-3.1-4.6-5.5-6.1c-2.4-1.5-5.1-2.3-7.9-2.3H52.2c-2.8,0-5.5,0.8-7.9,2.3
	c-2.4,1.5-4.3,3.6-5.5,6.1L21.5,73.8c0,0,0,0.1,0,0.1C21.2,74.5,21,75.2,21,76v30c0,4,1.6,7.8,4.4,10.6c2.8,2.8,6.6,4.4,10.6,4.4h80
	c4,0,7.8-1.6,10.6-4.4c2.8-2.8,4.4-6.6,4.4-10.6V76C131,75.2,130.8,74.5,130.5,73.9z M47.7,43.8C47.7,43.8,47.7,43.8,47.7,43.8
	c0.4-0.8,1.1-1.5,1.9-2s1.7-0.7,2.6-0.7h47.6c0.9,0,1.8,0.3,2.6,0.7c0.8,0.5,1.4,1.2,1.9,2L117.9,71H96c-1.7,0-3.2,0.8-4.2,2.2
	L83.3,86H68.7l-8.5-12.8C59.2,71.8,57.7,71,56,71H34.1L47.7,43.8z M119.5,109.5c-0.9,0.9-2.2,1.5-3.5,1.5H36c-1.3,0-2.6-0.5-3.5-1.5
	c-0.9-0.9-1.5-2.2-1.5-3.5V81h22.3l8.5,12.8c0.9,1.4,2.5,2.2,4.2,2.2h20c1.7,0,3.2-0.8,4.2-2.2L98.7,81H121v25
	C121,107.3,120.5,108.6,119.5,109.5z"/>
</svg>
