<?xml version="1.0" encoding="utf-8"?>
<!-- Generator: Adobe Illustrator 24.3.0, SVG Export Plug-In . SVG Version: 6.00 Build 0)  -->
<svg version="1.1" id="Layer_1" xmlns="http://www.w3.org/2000/svg" xmlns:xlink="http://www.w3.org/1999/xlink" x="0px" y="0px"
	 viewBox="0 0 134 134" style="enable-background:new 0 0 134 134;" xml:space="preserve">
<g>
	<path d="M97.7,19.6C89,10.9,77.4,6.1,65,6.1c-12.4,0-24,4.8-32.7,13.5C23.6,28.4,18.8,40,18.8,52.3c0,34.4,41.7,62.6,43.5,63.7
		c0.8,0.6,1.8,0.8,2.8,0.8s1.9-0.3,2.8-0.8c1.8-1.2,43.5-29.4,43.5-63.7C111.2,40,106.4,28.4,97.7,19.6z M65,105.8
		c-8.9-6.7-36.2-29-36.2-53.4c0-9.7,3.8-18.8,10.6-25.6S55.3,16.1,65,16.1c9.7,0,18.8,3.8,25.6,10.6c6.8,6.8,10.6,16,10.6,25.6
		C101.2,76.7,73.9,99.1,65,105.8z"/>
	<path d="M65,33.6c-10.3,0-18.8,8.4-18.8,18.8S54.7,71.1,65,71.1c10.3,0,18.8-8.4,18.8-18.7S75.3,33.6,65,33.6z M65,61.1
		c-4.8,0-8.8-3.9-8.8-8.8s3.9-8.8,8.8-8.8s8.8,3.9,8.8,8.8S69.8,61.1,65,61.1z"/>
</g>
</svg>
