<?xml version="1.0" encoding="utf-8"?>
<!-- Generator: Adobe Illustrator 24.3.0, SVG Export Plug-In . SVG Version: 6.00 Build 0)  -->
<svg version="1.1" id="Layer_1" xmlns="http://www.w3.org/2000/svg" xmlns:xlink="http://www.w3.org/1999/xlink" x="0px" y="0px"
	 viewBox="0 0 114 114" style="enable-background:new 0 0 114 114;" xml:space="preserve">
<path d="M88.3,13.2H21.7c-7.4,0-13.3,6-13.3,13.3v50c0,7.4,6,13.3,13.3,13.3h66.7c7.3,0,13.3-6,13.3-13.3v-50
	C101.7,19.1,95.7,13.2,88.3,13.2z M21.7,23.2h66.7c1,0,1.9,0.5,2.5,1.3L55,49.6L19.1,24.4C19.7,23.7,20.6,23.2,21.7,23.2z
	 M88.3,79.8H21.7c-1.8,0-3.3-1.5-3.3-3.3V36.1l33.8,23.7c0.9,0.6,1.9,0.9,2.9,0.9s2-0.3,2.9-0.9l33.8-23.7v40.4
	C91.7,78.3,90.1,79.8,88.3,79.8z"/>
</svg>
