<?xml version="1.0" encoding="utf-8"?>
<!-- Generator: Adobe Illustrator 24.3.0, SVG Export Plug-In . SVG Version: 6.00 Build 0)  -->
<svg version="1.1" id="Layer_1" xmlns="http://www.w3.org/2000/svg" xmlns:xlink="http://www.w3.org/1999/xlink" x="0px" y="0px"
	 viewBox="0 0 108 108" style="enable-background:new 0 0 108 108;" xml:space="preserve">
<g>
	<path d="M39,82.8H27.8c-0.7,0-1.3-0.3-1.8-0.7c-0.5-0.5-0.7-1.1-0.7-1.8V69c0-2.8-2.2-5-5-5s-5,2.2-5,5v11.2c0,3.3,1.3,6.5,3.7,8.8
		c2.4,2.4,5.5,3.7,8.8,3.7H39c2.8,0,5-2.2,5-5S41.8,82.8,39,82.8z"/>
	<path d="M39,15.2H27.8c-3.3,0-6.5,1.3-8.8,3.7s-3.7,5.5-3.7,8.8V39c0,2.8,2.2,5,5,5s5-2.2,5-5V27.8c0-0.7,0.3-1.3,0.7-1.8
		c0.5-0.5,1.1-0.7,1.8-0.7H39c2.8,0,5-2.2,5-5S41.8,15.2,39,15.2z"/>
	<path d="M89.1,18.9c-2.3-2.3-5.5-3.7-8.8-3.7H69c-2.8,0-5,2.2-5,5s2.2,5,5,5h11.2c0.7,0,1.3,0.3,1.8,0.7c0.5,0.5,0.7,1.1,0.7,1.8
		V39c0,2.8,2.2,5,5,5s5-2.2,5-5V27.8C92.8,24.4,91.5,21.3,89.1,18.9z"/>
	<path d="M87.8,64c-2.8,0-5,2.2-5,5v11.2c0,0.7-0.3,1.3-0.7,1.8s-1.1,0.7-1.8,0.7H69c-2.8,0-5,2.2-5,5s2.2,5,5,5h11.2
		c3.3,0,6.5-1.3,8.8-3.7s3.7-5.5,3.7-8.8V69C92.8,66.2,90.5,64,87.8,64z"/>
</g>
</svg>
