<?xml version="1.0" encoding="utf-8"?>
<!-- Generator: Adobe Illustrator 24.3.0, SVG Export Plug-In . SVG Version: 6.00 Build 0)  -->
<svg version="1.1" id="Layer_1" xmlns="http://www.w3.org/2000/svg" xmlns:xlink="http://www.w3.org/1999/xlink" x="0px" y="0px"
	 viewBox="0 0 132 132" style="enable-background:new 0 0 132 132;" xml:space="preserve">
<g>
	<path d="M94,45.5h15c2.8,0,5-2.2,5-5s-2.2-5-5-5H94c-1.3,0-2.6-0.5-3.5-1.5c-0.9-0.9-1.5-2.2-1.5-3.5v-15c0-2.8-2.2-5-5-5
		s-5,2.2-5,5v15c0,4,1.6,7.8,4.4,10.6C86.2,43.9,90,45.5,94,45.5z"/>
	<path d="M34,75.5H19c-2.8,0-5,2.2-5,5s2.2,5,5,5h15c1.3,0,2.6,0.5,3.5,1.5c0.9,0.9,1.5,2.2,1.5,3.5v15c0,2.8,2.2,5,5,5s5-2.2,5-5
		v-15c0-4-1.6-7.8-4.4-10.6C41.8,77.1,38,75.5,34,75.5z"/>
	<path d="M109,75.5H94c-4,0-7.8,1.6-10.6,4.4S79,86.5,79,90.5v15c0,2.8,2.2,5,5,5s5-2.2,5-5v-15c0-1.3,0.5-2.6,1.5-3.5
		s2.2-1.5,3.5-1.5h15c2.8,0,5-2.2,5-5S111.8,75.5,109,75.5z"/>
	<path d="M44,10.5c-2.8,0-5,2.2-5,5v15c0,1.3-0.5,2.6-1.5,3.5c-0.9,0.9-2.2,1.5-3.5,1.5H19c-2.8,0-5,2.2-5,5s2.2,5,5,5h15
		c4,0,7.8-1.6,10.6-4.4c2.8-2.8,4.4-6.6,4.4-10.6v-15C49,12.7,46.8,10.5,44,10.5z"/>
</g>
</svg>
