<?xml version="1.0" encoding="utf-8"?>
<!-- Generator: Adobe Illustrator 24.3.0, SVG Export Plug-In . SVG Version: 6.00 Build 0)  -->
<svg version="1.1" id="Layer_1" xmlns="http://www.w3.org/2000/svg" xmlns:xlink="http://www.w3.org/1999/xlink" x="0px" y="0px"
	 viewBox="0 0 118 118" style="enable-background:new 0 0 118 118;" xml:space="preserve">
<g>
	<path d="M47.8,11.8H29.5c-2.8,0-5,2.2-5,5v73.3c0,2.8,2.2,5,5,5h18.3c2.8,0,5-2.2,5-5V16.8C52.8,14.1,50.6,11.8,47.8,11.8z
		 M42.8,85.2h-8.3V21.8h8.3V85.2z"/>
	<path d="M84.5,11.8H66.2c-2.8,0-5,2.2-5,5v73.3c0,2.8,2.2,5,5,5h18.3c2.8,0,5-2.2,5-5V16.8C89.5,14.1,87.3,11.8,84.5,11.8z
		 M79.5,85.2h-8.3V21.8h8.3V85.2z"/>
</g>
</svg>
