<?xml version="1.0" encoding="utf-8"?>
<!-- Generator: Adobe Illustrator 24.3.0, SVG Export Plug-In . SVG Version: 6.00 Build 0)  -->
<svg version="1.1" id="Layer_1" xmlns="http://www.w3.org/2000/svg" xmlns:xlink="http://www.w3.org/1999/xlink" x="0px" y="0px"
	 viewBox="0 0 125.1 125.1" style="enable-background:new 0 0 125.1 125.1;" xml:space="preserve">
<g>
	<path d="M28.5,58.8c2.8,0,5-2.2,5-5V23.2c0-2.8-2.2-5-5-5s-5,2.2-5,5v30.6C23.5,56.5,25.8,58.8,28.5,58.8z"/>
	<path d="M63.5,57.5c-2.8,0-5,2.2-5,5v39.4c0,2.8,2.2,5,5,5c2.8,0,5-2.2,5-5V62.5C68.5,59.8,66.3,57.5,63.5,57.5z"/>
	<path d="M98.5,67.5c2.8,0,5-2.2,5-5V23.2c0-2.8-2.2-5-5-5s-5,2.2-5,5v39.4C93.5,65.3,95.8,67.5,98.5,67.5z"/>
	<path d="M41.7,66.3H15.4c-2.8,0-5,2.2-5,5s2.2,5,5,5h8.1v25.6c0,2.8,2.2,5,5,5s5-2.2,5-5V76.3h8.1c2.8,0,5-2.2,5-5
		S44.4,66.3,41.7,66.3z"/>
	<path d="M76.7,40h-8.1V23.2c0-2.8-2.2-5-5-5c-2.8,0-5,2.2-5,5V40h-8.1c-2.8,0-5,2.2-5,5s2.2,5,5,5h26.3c2.8,0,5-2.2,5-5
		S79.4,40,76.7,40z"/>
	<path d="M111.7,75H85.4c-2.8,0-5,2.2-5,5s2.2,5,5,5h8.1v16.9c0,2.8,2.2,5,5,5s5-2.2,5-5V85h8.1c2.8,0,5-2.2,5-5S114.4,75,111.7,75z
		"/>
</g>
</svg>
