<?xml version="1.0" encoding="utf-8"?>
<!-- Generator: Adobe Illustrator 24.3.0, SVG Export Plug-In . SVG Version: 6.00 Build 0)  -->
<svg version="1.1" id="Layer_1" xmlns="http://www.w3.org/2000/svg" xmlns:xlink="http://www.w3.org/1999/xlink" x="0px" y="0px"
	 viewBox="0 0 112 112" style="enable-background:new 0 0 112 112;" xml:space="preserve">
<path d="M91.3,80.7l-13-13c4.4-5.8,7-13.1,7-20.9c0-19.3-15.7-35-35-35c-19.3,0-35,15.7-35,35c0,19.3,15.7,35,35,35
	c7.8,0,15.1-2.6,20.9-7l13,13c1,1,2.3,1.5,3.5,1.5s2.6-0.5,3.5-1.5C93.2,85.8,93.2,82.7,91.3,80.7z M25.2,46.8c0-13.8,11.2-25,25-25
	s25,11.2,25,25c0,6.9-2.8,13.1-7.3,17.6c0,0-0.1,0-0.1,0s0,0.1,0,0.1c-4.5,4.5-10.7,7.3-17.6,7.3C36.5,71.8,25.2,60.5,25.2,46.8z"/>
</svg>
