<?xml version="1.0" encoding="utf-8"?>
<!-- Generator: Adobe Illustrator 24.3.0, SVG Export Plug-In . SVG Version: 6.00 Build 0)  -->
<svg version="1.1" id="Layer_1" xmlns="http://www.w3.org/2000/svg" xmlns:xlink="http://www.w3.org/1999/xlink" x="0px" y="0px"
	 viewBox="0 0 120 120" style="enable-background:new 0 0 120 120;" xml:space="preserve">
<path d="M80.5,64.5c-4.1,0-7.9,1.6-10.8,4.2L51.4,58c0.2-1.1,0.4-2.3,0.4-3.5c0-1.2-0.1-2.3-0.4-3.5l18.4-10.7
	c2.9,2.6,6.6,4.2,10.8,4.2c9,0,16.2-7.3,16.2-16.2S89.5,12,80.5,12s-16.2,7.3-16.2,16.2c0,1.2,0.1,2.3,0.4,3.5L46.3,42.4
	c-2.9-2.6-6.6-4.2-10.8-4.2c-9,0-16.2,7.3-16.2,16.2s7.3,16.2,16.2,16.2c4.1,0,7.9-1.6,10.8-4.2l18.4,10.7c-0.2,1.1-0.4,2.3-0.4,3.5
	c0,9,7.3,16.2,16.2,16.2s16.2-7.3,16.2-16.2S89.5,64.5,80.5,64.5z M80.5,22c3.4,0,6.2,2.8,6.2,6.2s-2.8,6.2-6.2,6.2
	s-6.2-2.8-6.2-6.2S77.1,22,80.5,22z M35.5,60.8c-3.4,0-6.2-2.8-6.2-6.2s2.8-6.2,6.2-6.2s6.2,2.8,6.2,6.2S38.9,60.8,35.5,60.8z
	 M80.5,87c-3.4,0-6.2-2.8-6.2-6.2s2.8-6.2,6.2-6.2s6.2,2.8,6.2,6.2S83.9,87,80.5,87z"/>
</svg>
