<?xml version="1.0" encoding="utf-8"?>
<!-- Generator: Adobe Illustrator 24.3.0, SVG Export Plug-In . SVG Version: 6.00 Build 0)  -->
<svg version="1.1" id="Layer_1" xmlns="http://www.w3.org/2000/svg" xmlns:xlink="http://www.w3.org/1999/xlink" x="0px" y="0px"
	 viewBox="0 0 140 140" style="enable-background:new 0 0 140 140;" xml:space="preserve">
<g>
	<path d="M65.2,25c-1.7-0.8-3.8-0.6-5.3,0.6L36.2,44.5H18c-2.8,0-5,2.2-5,5v30c0,2.8,2.2,5,5,5h18.2l23.6,18.9
		c0.9,0.7,2,1.1,3.1,1.1c0.7,0,1.5-0.2,2.2-0.5c1.7-0.8,2.8-2.6,2.8-4.5v-70C68,27.6,66.9,25.8,65.2,25z M58,89.1L41.1,75.6
		c-0.9-0.7-2-1.1-3.1-1.1H23v-20h15c1.1,0,2.2-0.4,3.1-1.1L58,39.9V89.1z"/>
	<path d="M106.9,25.6c-2-2-5.1-2-7.1,0c-2,2-2,5.1,0,7.1c8.5,8.5,13.2,19.8,13.2,31.8c0,12-4.7,23.3-13.2,31.8c-2,2-2,5.1,0,7.1
		c1,1,2.3,1.5,3.5,1.5s2.6-0.5,3.5-1.5C117.3,93,123,79.2,123,64.5C123,49.8,117.3,36,106.9,25.6z"/>
	<path d="M82.2,43.3c-2,2-2,5.1,0,7.1c3.8,3.8,5.9,8.8,5.9,14.1c0,5.3-2.1,10.4-5.9,14.1c-2,2-2,5.1,0,7.1c1,1,2.3,1.5,3.5,1.5
		s2.6-0.5,3.5-1.5c5.6-5.6,8.8-13.3,8.8-21.2c0-8-3.1-15.5-8.8-21.2C87.3,41.3,84.1,41.3,82.2,43.3z"/>
</g>
</svg>
