<?xml version="1.0" encoding="utf-8"?>
<!-- Generator: Adobe Illustrator 24.3.0, SVG Export Plug-In . SVG Version: 6.00 Build 0)  -->
<svg version="1.1" id="Layer_1" xmlns="http://www.w3.org/2000/svg" xmlns:xlink="http://www.w3.org/1999/xlink" x="0px" y="0px"
	 viewBox="0 0 120 120" style="enable-background:new 0 0 120 120;" xml:space="preserve">
<g>
	<path d="M97.3,45.1L61.5,9.3c-0.9-0.9-2.2-1.5-3.5-1.5H16.3c-2.8,0-5,2.2-5,5v41.7c0,1.3,0.5,2.6,1.5,3.5l35.8,35.8
		c1.2,1.2,2.7,2.2,4.3,2.9c1.6,0.7,3.3,1,5.1,1c1.8,0,3.5-0.3,5.1-1c1.6-0.7,3.1-1.6,4.3-2.9l29.9-29.9c0,0,0,0,0,0
		c2.5-2.5,3.9-5.8,3.9-9.4S99.8,47.6,97.3,45.1z M90.3,56.8L60.4,86.7c-0.3,0.3-0.7,0.6-1.1,0.7c-0.8,0.3-1.7,0.3-2.6,0
		c-0.4-0.2-0.8-0.4-1.1-0.7L21.3,52.4V17.8h34.6l34.3,34.3c0.6,0.6,1,1.5,1,2.3C91.2,55.4,90.9,56.2,90.3,56.8z"/>
	<path d="M37.2,28.7L37.2,28.7c-2.8,0-5,2.2-5,5s2.3,5,5,5s5-2.2,5-5S40,28.7,37.2,28.7z"/>
</g>
</svg>
