<?xml version="1.0" encoding="utf-8"?>
<!-- Generator: Adobe Illustrator 24.3.0, SVG Export Plug-In . SVG Version: 6.00 Build 0)  -->
<svg version="1.1" id="Layer_1" xmlns="http://www.w3.org/2000/svg" xmlns:xlink="http://www.w3.org/1999/xlink" x="0px" y="0px"
	 viewBox="0 0 143 143" style="enable-background:new 0 0 143 143;" xml:space="preserve">
<g>
	<path d="M88.4,32.9H54.6C35.5,32.9,20,48.6,20,68s15.5,35.1,34.6,35.1h33.9c19.1,0,34.6-15.8,34.6-35.1S107.5,32.9,88.4,32.9z
		 M88.4,93.1H54.6C41,93.1,30,81.8,30,68c0-13.9,11-25.1,24.6-25.1h33.9C102,42.9,113,54.1,113,68C113,81.8,102,93.1,88.4,93.1z"/>
	<path d="M87.9,49.3c-10.3,0-18.7,8.4-18.7,18.7s8.4,18.7,18.7,18.7c10.3,0,18.7-8.4,18.7-18.7S98.2,49.3,87.9,49.3z"/>
</g>
</svg>
