<?xml version="1.0" encoding="utf-8"?>
<!-- Generator: Adobe Illustrator 24.3.0, SVG Export Plug-In . SVG Version: 6.00 Build 0)  -->
<svg version="1.1" id="Layer_1" xmlns="http://www.w3.org/2000/svg" xmlns:xlink="http://www.w3.org/1999/xlink" x="0px" y="0px"
	 viewBox="0 0 118 118" style="enable-background:new 0 0 118 118;" xml:space="preserve">
<path d="M112,24.1c-0.5-1.2-1.5-2.2-2.7-2.7c-0.6-0.3-1.3-0.4-1.9-0.4H79.9c-2.8,0-5,2.2-5,5s2.2,5,5,5h15.4L63.9,62.5L44.5,43.1
	c-2-2-5.1-2-7.1,0L3,77.5c-2,2-2,5.1,0,7.1c1,1,2.3,1.5,3.5,1.5s2.6-0.5,3.5-1.5L41,53.7l19.4,19.4c2,2,5.1,2,7.1,0l35-35v15.4
	c0,2.8,2.2,5,5,5s5-2.2,5-5V26C112.4,25.3,112.3,24.7,112,24.1z"/>
</svg>
