<?xml version="1.0" encoding="utf-8"?>
<!-- Generator: Adobe Illustrator 24.3.0, SVG Export Plug-In . SVG Version: 6.00 Build 0)  -->
<svg version="1.1" id="Layer_1" xmlns="http://www.w3.org/2000/svg" xmlns:xlink="http://www.w3.org/1999/xlink" x="0px" y="0px"
	 viewBox="0 0 118 118" style="enable-background:new 0 0 118 118;" xml:space="preserve">
<g>
	<path d="M82,52.7c-2.8,0-5,2.2-5,5v25c0,0.9-0.3,1.7-1,2.4s-1.5,1-2.4,1H27.8c-0.9,0-1.7-0.4-2.4-1c-0.6-0.6-1-1.5-1-2.4V36.8
		c0-0.9,0.4-1.7,1-2.4s1.5-1,2.4-1h25c2.8,0,5-2.2,5-5s-2.2-5-5-5h-25c-3.6,0-6.9,1.4-9.4,3.9s-3.9,5.9-3.9,9.4v45.8
		c0,3.6,1.4,6.9,3.9,9.4s5.9,3.9,9.4,3.9h45.8c3.6,0,6.9-1.4,9.4-3.9s3.9-5.9,3.9-9.4v-25C87,54.9,84.8,52.7,82,52.7z"/>
	<path d="M99.1,14.1c-0.5-1.2-1.5-2.2-2.7-2.7c-0.6-0.3-1.3-0.4-1.9-0.4h-25c-2.8,0-5,2.2-5,5s2.2,5,5,5h12.9L45.1,58.3
		c-2,2-2,5.1,0,7.1c1,1,2.3,1.5,3.5,1.5s2.6-0.5,3.5-1.5l37.3-37.3V41c0,2.8,2.2,5,5,5s5-2.2,5-5V16C99.5,15.3,99.4,14.7,99.1,14.1z
		"/>
</g>
</svg>
