<?xml version="1.0" encoding="utf-8"?>
<!-- Generator: Adobe Illustrator 24.3.0, SVG Export Plug-In . SVG Version: 6.00 Build 0)  -->
<svg version="1.1" id="Layer_1" xmlns="http://www.w3.org/2000/svg" xmlns:xlink="http://www.w3.org/1999/xlink" x="0px" y="0px"
	 viewBox="0 0 172 172" style="enable-background:new 0 0 172 172;" xml:space="preserve">
<path d="M141.3,51.1c-1.7-0.9-3.7-0.7-5.2,0.4L109,70.8V55.5c0-8.3-6.7-15-15-15H39c-8.3,0-15,6.7-15,15v50c0,8.3,6.7,15,15,15h55
	c8.3,0,15-6.7,15-15V90.2l27.1,19.4c0.9,0.6,1.9,0.9,2.9,0.9c0.8,0,1.6-0.2,2.3-0.6c1.7-0.9,2.7-2.6,2.7-4.4v-50
	C144,53.6,143,51.9,141.3,51.1z M99,105.5c0,2.8-2.2,5-5,5H39c-2.8,0-5-2.2-5-5v-50c0-2.8,2.2-5,5-5h55c2.8,0,5,2.2,5,5V105.5z
	 M134,95.8l-21.4-15.3L134,65.2V95.8z"/>
</svg>
