<?xml version="1.0" encoding="utf-8"?>
<!-- Generator: Adobe Illustrator 24.3.0, SVG Export Plug-In . SVG Version: 6.00 Build 0)  -->
<svg version="1.1" id="Layer_1" xmlns="http://www.w3.org/2000/svg" xmlns:xlink="http://www.w3.org/1999/xlink" x="0px" y="0px"
	 viewBox="0 0 100 100" style="enable-background:new 0 0 100 100;" xml:space="preserve">
<path d="M91.7,7.5h-25c-5.8,0-11.2,2.3-15.3,6.3c-0.5,0.5-0.9,1.1-1.3,1.6c-0.4-0.5-0.8-1.1-1.3-1.6c-4.1-4.1-9.5-6.3-15.3-6.3h-25
	c-2.8,0-5,2.2-5,5V75c0,2.8,2.2,5,5,5h29.2c2,0,3.9,0.8,5.3,2.2c1.4,1.4,2.2,3.3,2.2,5.3c0,2.8,2.2,5,5,5s5-2.2,5-5
	c0-2,0.8-3.9,2.2-5.3s3.3-2.2,5.3-2.2h29.2c2.8,0,5-2.2,5-5V12.5C96.7,9.7,94.4,7.5,91.7,7.5z M45,71.7c-2.3-1.1-4.9-1.7-7.5-1.7
	H13.3V17.5h20c3.1,0,6,1.2,8.2,3.4c2.2,2.2,3.4,5.1,3.4,8.3V71.7z M86.7,70H62.5c-2.6,0-5.2,0.6-7.5,1.7V29.2c0-3.1,1.2-6,3.4-8.2
	c2.2-2.2,5.1-3.4,8.3-3.4h20V70z"/>
</svg>
