<?xml version="1.0" encoding="UTF-8"?>
<svg width="78px" height="20px" viewBox="0 0 78 20" version="1.1" xmlns="http://www.w3.org/2000/svg" xmlns:xlink="http://www.w3.org/1999/xlink">
    <title>0D4E25FB-28E3-4FE7-9F98-9ACC5AE79590@1x</title>
    <defs>
        <filter id="filter-1">
            <feColorMatrix in="SourceGraphic" type="matrix" values="0 0 0 0 1.000000 0 0 0 0 1.000000 0 0 0 0 1.000000 0 0 0 1.000000 0"></feColorMatrix>
        </filter>
        <polygon id="path-2" points="0 0 78 0 78 20 0 20"></polygon>
    </defs>
    <g id="Blue-Steel" stroke="none" stroke-width="1" fill="none" fill-rule="evenodd">
        <g id="Group-3" filter="url(#filter-1)">
            <g>
                <mask id="mask-3" fill="white">
                    <use xlink:href="#path-2"></use>
                </mask>
                <g id="Clip-2"></g>
                <path d="M8.25730811,15.0589023 C8.25730811,17.4119509 7.33365683,18.4706706 4.73790982,18.4706706 L1.37601453,18.4706706 L1.37601453,10.3333232 L4.73790982,10.3333232 C7.33365683,10.3333232 8.25730811,11.3920429 8.25730811,13.7450915 L8.25730811,15.0589023 Z M1.37601453,1.5293294 L4.54133632,1.5293294 C7.07725661,1.5293294 8.08088034,2.47054884 8.08088034,4.80350674 L8.08088034,5.72524428 C8.08088034,8.058811 7.07725661,8.99942163 4.54133632,8.99942163 L1.37601453,8.99942163 L1.37601453,1.5293294 Z M5.60356581,9.82314085 L5.60356581,9.50960397 C7.92337735,9.37262184 9.43797009,8.21527503 9.43797009,5.68567167 L9.43797009,4.78402484 C9.43797009,1.76493866 7.92337735,0.195427841 4.54133632,0.195427841 L0,0.195427841 L0,19.8039633 L4.73790982,19.8039633 C8.17916709,19.8039633 9.63393311,18.1175611 9.63393311,15.0783842 L9.63393311,13.7840553 C9.63393311,11.2355788 8.17916709,9.96073179 5.60356581,9.82314085 L5.60356581,9.82314085 Z M78,0.195427841 L77.5116186,0.195427841 L77.070244,1.42217893 L76.6313112,0.195427841 L76.1398774,0.195427841 L76.1398774,1.90922651 L76.4548834,1.90922651 L76.4548834,0.526620194 L76.9347181,1.90922651 L77.2094326,1.90922651 L77.684994,0.526620194 L77.684994,1.90922651 L78,1.90922651 L78,0.195427841 Z M75.84868,0.195427841 L74.3835359,0.195427841 L74.3835359,0.481568293 L74.945785,0.481568293 L74.945785,1.90922651 L75.2870415,1.90922651 L75.2870415,0.481568293 L75.84868,0.481568293 L75.84868,0.195427841 Z M72.4788485,0.195427841 L71.1614398,0.195427841 L71.1614398,18.5686889 L70.5326488,18.5686889 L65.440052,0.195427841 L62.4511579,0.195427841 L62.4511579,19.8039633 L63.7685667,19.8039633 L63.7685667,1.43131107 L64.3973577,1.43131107 L69.4899545,19.8039633 L72.4788485,19.8039633 L72.4788485,0.195427841 Z M45.5287433,5.37213479 C45.5287433,1.9603665 43.7986523,0 40.672401,0 C37.5461497,0 35.8154482,2.15640315 35.8154482,5.76420809 L35.8154482,14.2351831 C35.8154482,17.842988 37.5461497,20 40.672401,20 C43.7986523,20 45.5287433,18.0396335 45.5287433,14.6272564 L45.5287433,12.9609449 L44.1521183,12.9609449 L44.1521183,14.6272564 C44.1521183,17.2542693 43.1295698,18.6861892 40.672401,18.6861892 C38.2140112,18.6861892 37.1914627,17.0582326 37.1914627,14.2351831 L37.1914627,5.76420809 C37.1914627,2.94115856 38.2140112,1.31320203 40.672401,1.31320203 C43.1295698,1.31320203 44.1521183,2.7445131 44.1521183,5.37213479 L44.1521183,6.84301848 L45.5287433,6.84301848 L45.5287433,5.37213479 Z M20.9955153,0.195427841 L12.914635,0.195427841 L12.914635,19.8039633 L20.7201903,19.8039633 L20.9955153,18.4706706 L14.2906495,18.4706706 L14.2906495,10.4313415 L20.7989418,10.4313415 L20.7989418,9.09743996 L14.2906495,9.09743996 L14.2906495,1.5293294 L20.9955153,1.5293294 L20.9955153,0.195427841 Z M25.2224562,12.4708532 L27.4439809,1.50984749 L28.3883884,1.50984749 L30.6093027,12.4708532 L25.2224562,12.4708532 Z M29.4890779,0.195427841 L26.3823619,0.195427841 L22.3715299,19.8039633 L23.7280091,19.8039633 L24.9471312,13.7840553 L30.8846277,13.7840553 L32.1043602,19.8039633 L33.5005205,19.8039633 L29.4890779,0.195427841 Z M57.2834725,14.2351831 C57.2834725,17.0582326 56.1229563,18.6861892 53.6456417,18.6861892 C51.1677167,18.6861892 50.0084214,17.0582326 50.0084214,14.2351831 L50.0084214,5.76420809 C50.0084214,2.94115856 51.1677167,1.31320203 53.6456417,1.31320203 C56.1229563,1.31320203 57.2834725,2.94115856 57.2834725,5.76420809 L57.2834725,14.2351831 Z M53.6456417,0 C50.4992447,0 48.6317964,2.17588506 48.6317964,5.76420809 L48.6317964,14.2351831 C48.6317964,17.8235061 50.4992447,20 53.6456417,20 C56.7914283,20 58.659487,17.8235061 58.659487,14.2351831 L58.659487,5.76420809 C58.659487,2.17588506 56.7914283,0 53.6456417,0 L53.6456417,0 Z" id="Fill-1" fill="#000000" mask="url(#mask-3)"></path>
            </g>
        </g>
    </g>
</svg>